<svg class="animated" id="freepik_stories-karaoke" xmlns="http://www.w3.org/2000/svg" viewBox="0 0 500 500" version="1.1" xmlns:xlink="http://www.w3.org/1999/xlink" xmlns:svgjs="http://svgjs.com/svgjs"><style>svg#freepik_stories-karaoke:not(.animated) .animable {opacity: 0;}svg#freepik_stories-karaoke.animated #freepik--background-complete--inject-2 {animation: 1s 1 forwards cubic-bezier(.36,-0.01,.5,1.38) slideRight;animation-delay: 0s;}svg#freepik_stories-karaoke.animated #freepik--Shadow--inject-2 {animation: 1s 1 forwards cubic-bezier(.36,-0.01,.5,1.38) slideUp;animation-delay: 0s;}svg#freepik_stories-karaoke.animated #freepik--Screen--inject-2 {animation: 1s 1 forwards cubic-bezier(.36,-0.01,.5,1.38) slideUp;animation-delay: 0s;}svg#freepik_stories-karaoke.animated #freepik--character-2--inject-2 {animation: 1s 1 forwards cubic-bezier(.36,-0.01,.5,1.38) fadeIn,1.5s Infinite  linear wind;animation-delay: 0s,1s;}svg#freepik_stories-karaoke.animated #freepik--character-1--inject-2 {animation: 1s 1 forwards cubic-bezier(.36,-0.01,.5,1.38) slideLeft;animation-delay: 0s;}            @keyframes slideRight {                0% {                    opacity: 0;                    transform: translateX(30px);                }                100% {                    opacity: 1;                    transform: translateX(0);                }            }                    @keyframes slideUp {                0% {                    opacity: 0;                    transform: translateY(30px);                }                100% {                    opacity: 1;                    transform: inherit;                }            }                    @keyframes fadeIn {                0% {                    opacity: 0;                }                100% {                    opacity: 1;                }            }                    @keyframes wind {                0% {                    transform: rotate( 0deg );                }                25% {                    transform: rotate( 1deg );                }                75% {                    transform: rotate( -1deg );                }            }                    @keyframes slideLeft {                0% {                    opacity: 0;                    transform: translateX(-30px);                }                100% {                    opacity: 1;                    transform: translateX(0);                }            }        </style><g id="freepik--background-complete--inject-2" class="animable" style="transform-origin: 250px 228.23px;"><rect y="382.4" width="500" height="0.25" style="fill: rgb(235, 235, 235); transform-origin: 250px 382.525px;" id="eleq6enx48oew" class="animable"></rect><rect x="416.78" y="398.49" width="33.12" height="0.25" style="fill: rgb(235, 235, 235); transform-origin: 433.34px 398.615px;" id="elzwzbphmjei" class="animable"></rect><rect x="322.53" y="401.21" width="8.69" height="0.25" style="fill: rgb(235, 235, 235); transform-origin: 326.875px 401.335px;" id="elwwi9q5xsow" class="animable"></rect><rect x="396.59" y="389.21" width="19.19" height="0.25" style="fill: rgb(235, 235, 235); transform-origin: 406.185px 389.335px;" id="elatxafoj2ii" class="animable"></rect><rect x="52.46" y="390.89" width="43.19" height="0.25" style="fill: rgb(235, 235, 235); transform-origin: 74.055px 391.015px;" id="elzl46pprn2af" class="animable"></rect><rect x="104.56" y="390.89" width="6.33" height="0.25" style="fill: rgb(235, 235, 235); transform-origin: 107.725px 391.015px;" id="ely6pb07jojj" class="animable"></rect><rect x="131.47" y="395.11" width="93.68" height="0.25" style="fill: rgb(235, 235, 235); transform-origin: 178.31px 395.235px;" id="elwahf0pl3tn" class="animable"></rect><path d="M237,337.8H43.91a5.71,5.71,0,0,1-5.7-5.71V60.66A5.71,5.71,0,0,1,43.91,55H237a5.71,5.71,0,0,1,5.71,5.71V332.09A5.71,5.71,0,0,1,237,337.8ZM43.91,55.2a5.46,5.46,0,0,0-5.45,5.46V332.09a5.46,5.46,0,0,0,5.45,5.46H237a5.47,5.47,0,0,0,5.46-5.46V60.66A5.47,5.47,0,0,0,237,55.2Z" style="fill: rgb(235, 235, 235); transform-origin: 140.46px 196.4px;" id="ela11q0n71vkf" class="animable"></path><path d="M453.31,337.8H260.21a5.72,5.72,0,0,1-5.71-5.71V60.66A5.72,5.72,0,0,1,260.21,55h193.1A5.71,5.71,0,0,1,459,60.66V332.09A5.71,5.71,0,0,1,453.31,337.8ZM260.21,55.2a5.47,5.47,0,0,0-5.46,5.46V332.09a5.47,5.47,0,0,0,5.46,5.46h193.1a5.47,5.47,0,0,0,5.46-5.46V60.66a5.47,5.47,0,0,0-5.46-5.46Z" style="fill: rgb(235, 235, 235); transform-origin: 356.75px 196.4px;" id="eluxy9sln3brd" class="animable"></path><rect x="202.12" y="103.15" width="105.51" height="279.25" style="fill: rgb(230, 230, 230); transform-origin: 254.875px 242.775px;" id="elpz9ciundu3" class="animable"></rect><path d="M106,380.69h0a3.45,3.45,0,0,0,3.44-3.44V243.84a3.44,3.44,0,0,0-3.44-3.43h0a3.44,3.44,0,0,0-3.43,3.43V377.25A3.44,3.44,0,0,0,106,380.69Z" style="fill: rgb(224, 224, 224); transform-origin: 106.005px 310.55px;" id="ell1oyj353z6" class="animable"></path><path d="M90,145.77h30.81a0,0,0,0,1,0,0V250.56a9.81,9.81,0,0,1-9.81,9.81H99.82A9.81,9.81,0,0,1,90,250.56V145.77A0,0,0,0,1,90,145.77Z" style="fill: rgb(224, 224, 224); transform-origin: 105.405px 203.07px;" id="elzntnkbn96a9" class="animable"></path><path d="M98.82,145.77h22a0,0,0,0,1,0,0V249.92a9.81,9.81,0,0,1-9.81,9.81h-2.37a9.81,9.81,0,0,1-9.81-9.81V145.77A0,0,0,0,1,98.82,145.77Z" style="fill: rgb(240, 240, 240); transform-origin: 109.82px 202.75px;" id="eldz1uqeppfym" class="animable"></path><path d="M116.88,166.67c0,6.91-2.89,12.51-6.46,12.51s-6.46-5.6-6.46-12.51,2.89-12.5,6.46-12.5S116.88,159.77,116.88,166.67Z" style="fill: rgb(224, 224, 224); transform-origin: 110.42px 166.675px;" id="el7a1fkdr7xgp" class="animable"></path><ellipse cx="108.91" cy="167.36" rx="3.22" ry="6.24" style="fill: rgb(230, 230, 230); transform-origin: 108.91px 167.36px;" id="el8sg81u0pr85" class="animable"></ellipse><ellipse cx="109.82" cy="204.86" rx="6.46" ry="12.51" style="fill: rgb(224, 224, 224); transform-origin: 109.82px 204.86px;" id="elf4f3h1orgdp" class="animable"></ellipse><path d="M111.53,205.54c0,3.45-1.44,6.25-3.22,6.25s-3.23-2.8-3.23-6.25,1.45-6.24,3.23-6.24S111.53,202.1,111.53,205.54Z" style="fill: rgb(230, 230, 230); transform-origin: 108.305px 205.545px;" id="elomr0zfhtbtj" class="animable"></path><path d="M96,375.71h20.08a3.73,3.73,0,0,1,3.73,3.73v3a0,0,0,0,1,0,0H92.26a0,0,0,0,1,0,0v-3A3.73,3.73,0,0,1,96,375.71Z" style="fill: rgb(224, 224, 224); transform-origin: 106.035px 379.075px;" id="eln0jarwp74kq" class="animable"></path><path d="M394,380.69h0a3.45,3.45,0,0,1-3.44-3.44V243.84a3.44,3.44,0,0,1,3.44-3.43h0a3.44,3.44,0,0,1,3.43,3.43V377.25A3.44,3.44,0,0,1,394,380.69Z" style="fill: rgb(224, 224, 224); transform-origin: 393.995px 310.55px;" id="elr5qbqkqjvp" class="animable"></path><g id="elvn8d5fqtxh"><path d="M389,145.77h11.18a9.81,9.81,0,0,1,9.81,9.81V260.37a0,0,0,0,1,0,0H379.19a0,0,0,0,1,0,0V155.59A9.81,9.81,0,0,1,389,145.77Z" style="fill: rgb(224, 224, 224); transform-origin: 394.59px 203.07px; transform: rotate(180deg);" class="animable" id="el100g9rmulhkb"></path></g><g id="elwz7aixqr1y"><path d="M389,145.77h2.37a9.81,9.81,0,0,1,9.81,9.81V259.74a0,0,0,0,1,0,0h-22a0,0,0,0,1,0,0V155.59A9.81,9.81,0,0,1,389,145.77Z" style="fill: rgb(240, 240, 240); transform-origin: 390.18px 202.755px; transform: rotate(180deg);" class="animable" id="eldm2zisyxngp"></path></g><path d="M383.12,166.67c0,6.91,2.89,12.51,6.46,12.51s6.46-5.6,6.46-12.51-2.89-12.5-6.46-12.5S383.12,159.77,383.12,166.67Z" style="fill: rgb(224, 224, 224); transform-origin: 389.58px 166.675px;" id="elgrtk4bf998a" class="animable"></path><ellipse cx="391.09" cy="167.36" rx="3.22" ry="6.24" style="fill: rgb(230, 230, 230); transform-origin: 391.09px 167.36px;" id="el8q1e60sfi5u" class="animable"></ellipse><ellipse cx="390.18" cy="204.86" rx="6.46" ry="12.51" style="fill: rgb(224, 224, 224); transform-origin: 390.18px 204.86px;" id="elzvfdnp3z8lc" class="animable"></ellipse><path d="M388.47,205.54c0,3.45,1.44,6.25,3.22,6.25s3.23-2.8,3.23-6.25-1.45-6.24-3.23-6.24S388.47,202.1,388.47,205.54Z" style="fill: rgb(230, 230, 230); transform-origin: 391.695px 205.545px;" id="elhudkbw5m4qi" class="animable"></path><g id="elayxz29k046k"><path d="M380.21,375.71h27.53a0,0,0,0,1,0,0v3A3.73,3.73,0,0,1,404,382.4H383.93a3.73,3.73,0,0,1-3.73-3.73v-3A0,0,0,0,1,380.21,375.71Z" style="fill: rgb(224, 224, 224); transform-origin: 393.97px 379.035px; transform: rotate(180deg);" class="animable" id="el9hn7tjoo8o"></path></g><rect x="208.45" y="121.09" width="27.41" height="8.94" style="fill: rgb(224, 224, 224); transform-origin: 222.155px 125.56px;" id="eltbq4k59aol" class="animable"></rect><rect x="222.16" y="131.65" width="27.41" height="8.94" style="fill: rgb(224, 224, 224); transform-origin: 235.865px 136.12px;" id="eljv8ri96ynxh" class="animable"></rect><rect x="207.15" y="141.7" width="27.41" height="8.94" style="fill: rgb(224, 224, 224); transform-origin: 220.855px 146.17px;" id="elp31es9nrkps" class="animable"></rect><rect x="267.57" y="160.91" width="27.41" height="8.94" style="fill: rgb(224, 224, 224); transform-origin: 281.275px 165.38px;" id="elcgi32ibxh5w" class="animable"></rect><rect x="279.2" y="150.64" width="27.41" height="8.94" style="fill: rgb(224, 224, 224); transform-origin: 292.905px 155.11px;" id="elgs8pk6s929w" class="animable"></rect><rect x="256.94" y="131.65" width="27.41" height="8.94" style="fill: rgb(224, 224, 224); transform-origin: 270.645px 136.12px;" id="elt2y1ixlpreg" class="animable"></rect><rect x="269.17" y="121.09" width="27.41" height="8.94" style="fill: rgb(224, 224, 224); transform-origin: 282.875px 125.56px;" id="elpokyp7d0wh" class="animable"></rect><rect x="215.45" y="165.38" width="27.41" height="8.94" style="fill: rgb(224, 224, 224); transform-origin: 229.155px 169.85px;" id="elpnnkajv1jq" class="animable"></rect><g id="elgo7znjiqw7f"><rect x="276.17" y="335.24" width="27.41" height="8.94" style="fill: rgb(224, 224, 224); transform-origin: 289.875px 339.71px; transform: rotate(180deg);" class="animable" id="el4v3rr8e9ekm"></rect></g><g id="elyp0gk5ktf7a"><rect x="213.02" y="359.51" width="27.41" height="8.94" style="fill: rgb(224, 224, 224); transform-origin: 226.725px 363.98px; transform: rotate(180deg);" class="animable" id="el8axgfa6gtt"></rect></g><g id="elj8rq8ym7f1i"><rect x="228.86" y="370.43" width="27.41" height="8.94" style="fill: rgb(224, 224, 224); transform-origin: 242.565px 374.9px; transform: rotate(180deg);" class="animable" id="el1p19u0ujnkw"></rect></g><g id="elrg5nyrfbzu"><rect x="262.47" y="324.67" width="27.41" height="8.94" style="fill: rgb(224, 224, 224); transform-origin: 276.175px 329.14px; transform: rotate(180deg);" class="animable" id="elkqit0u11zni"></rect></g><g id="elvo97h74b61f"><rect x="277.48" y="314.62" width="27.41" height="8.94" style="fill: rgb(224, 224, 224); transform-origin: 291.185px 319.09px; transform: rotate(180deg);" class="animable" id="eltqykddx449"></rect></g><g id="el2twasdqjx1p"><rect x="217.06" y="295.41" width="27.41" height="8.94" style="fill: rgb(224, 224, 224); transform-origin: 230.765px 299.88px; transform: rotate(180deg);" class="animable" id="eli9mr134kwd"></rect></g><g id="elmeeb0m2s5ga"><rect x="205.42" y="305.68" width="27.41" height="8.94" style="fill: rgb(224, 224, 224); transform-origin: 219.125px 310.15px; transform: rotate(180deg);" class="animable" id="ellkj48hzh5sf"></rect></g><g id="ela7ip5zz9fkq"><rect x="227.68" y="324.67" width="27.41" height="8.94" style="fill: rgb(224, 224, 224); transform-origin: 241.385px 329.14px; transform: rotate(180deg);" class="animable" id="elyq0x6mq1b3"></rect></g><g id="elmwsgpm58sj"><rect x="215.45" y="335.24" width="27.41" height="8.94" style="fill: rgb(224, 224, 224); transform-origin: 229.155px 339.71px; transform: rotate(180deg);" class="animable" id="elmwpl9hu9ix"></rect></g><g id="eluw2967iwo8a"><rect x="269.18" y="290.94" width="27.41" height="8.94" style="fill: rgb(224, 224, 224); transform-origin: 282.885px 295.41px; transform: rotate(180deg);" class="animable" id="elvsdyxd0uvos"></rect></g><g id="elf9pabz5sids"><rect x="244.8" y="307.66" width="27.41" height="8.94" style="fill: rgb(224, 224, 224); transform-origin: 258.505px 312.13px; transform: rotate(180deg);" class="animable" id="el8rv3t0zmpu8"></rect></g><g id="el3o3ftmpuqji"><rect x="244.8" y="359.97" width="27.41" height="8.94" style="fill: rgb(224, 224, 224); transform-origin: 258.505px 364.44px; transform: rotate(180deg);" class="animable" id="elo825eh42ka"></rect></g></g><g id="freepik--Shadow--inject-2" class="animable" style="transform-origin: 250px 416.24px;"><ellipse id="freepik--path--inject-2" cx="250" cy="416.24" rx="193.89" ry="11.32" style="fill: rgb(245, 245, 245); transform-origin: 250px 416.24px;" class="animable"></ellipse></g><g id="freepik--Screen--inject-2" class="animable" style="transform-origin: 254.205px 223.755px;"><g id="elaufpcwcy01w"><rect x="200.42" y="149.02" width="107.57" height="149.47" rx="4.45" style="fill: rgb(38, 50, 56); transform-origin: 254.205px 223.755px; transform: rotate(90deg);" class="animable" id="eljxf5hyxiqhe"></rect></g><g id="eliski4inbbt"><rect x="200.42" y="149.02" width="107.57" height="149.47" rx="4.45" style="fill: rgb(255, 255, 255); isolation: isolate; opacity: 0.2; transform-origin: 254.205px 223.755px; transform: rotate(90deg);" class="animable" id="elb5eambk5arm"></rect></g><rect x="182.15" y="172.63" width="144.12" height="102.23" rx="2.76" style="fill: #FF5A60; transform-origin: 254.21px 223.745px;" id="eld89s3iftheu" class="animable"></rect><g id="elq3mmk3nteep"><rect x="182.15" y="172.63" width="144.12" height="102.23" rx="2.76" style="fill: rgb(255, 255, 255); isolation: isolate; opacity: 0.2; transform-origin: 254.21px 223.745px;" class="animable" id="elrocrek6v95a"></rect></g><path d="M208.75,194.75a8.7,8.7,0,0,1,1.7-.15,3,3,0,0,1,2,.52,1.53,1.53,0,0,1,.6,1.27,1.72,1.72,0,0,1-1.22,1.59v0a1.87,1.87,0,0,1,1.49,1.81,1.94,1.94,0,0,1-.61,1.44,3.65,3.65,0,0,1-2.5.67,11.57,11.57,0,0,1-1.44-.08Zm.93,2.95h.85c1,0,1.56-.51,1.56-1.21s-.64-1.18-1.59-1.18a4,4,0,0,0-.82.07Zm0,3.45a4,4,0,0,0,.78,0c1,0,1.85-.36,1.85-1.4s-.84-1.39-1.86-1.39h-.77Z" style="fill: rgb(255, 255, 255); transform-origin: 211.035px 198.252px;" id="eltekhkztgbkh" class="animable"></path><path d="M217.38,201.86l-.08-.65h0a1.94,1.94,0,0,1-1.58.77,1.47,1.47,0,0,1-1.58-1.49c0-1.25,1.11-1.93,3.11-1.92v-.11a1.07,1.07,0,0,0-1.18-1.2,2.57,2.57,0,0,0-1.35.39l-.21-.62a3.21,3.21,0,0,1,1.7-.46c1.58,0,2,1.08,2,2.11v1.94a7.75,7.75,0,0,0,.08,1.24Zm-.14-2.64c-1,0-2.19.16-2.19,1.16a.83.83,0,0,0,.88.9,1.3,1.3,0,0,0,1.26-.86,1.11,1.11,0,0,0,.05-.3Z" style="fill: rgb(255, 255, 255); transform-origin: 216.215px 199.277px;" id="ellrm0m7420wd" class="animable"></path><path d="M219.62,201.86c0-.35,0-.88,0-1.34v-6.25h.94v3.25h0a1.92,1.92,0,0,1,1.76-1c1.29,0,2.19,1.07,2.18,2.64,0,1.85-1.16,2.77-2.32,2.77a1.83,1.83,0,0,1-1.73-1h0l0,.86Zm1-2.07a2,2,0,0,0,0,.34,1.45,1.45,0,0,0,1.41,1.1c1,0,1.57-.8,1.57-2s-.53-1.93-1.54-1.93a1.5,1.5,0,0,0-1.43,1.16,2,2,0,0,0-.05.38Z" style="fill: rgb(255, 255, 255); transform-origin: 222.06px 198.101px;" id="eldezu0vfz45l" class="animable"></path><path d="M226,196.68l1.13,3.06c.12.34.25.75.33,1.06h0c.1-.31.21-.7.33-1.08l1-3h1l-1.42,3.69a7.78,7.78,0,0,1-1.77,3.24,2.48,2.48,0,0,1-1.16.61l-.23-.79a2.38,2.38,0,0,0,.82-.46,2.69,2.69,0,0,0,.79-1.05.54.54,0,0,0,.08-.22.73.73,0,0,0-.07-.25L225,196.68Z" style="fill: rgb(255, 255, 255); transform-origin: 227.395px 200.47px;" id="elouzkx6fn50k" class="animable"></path><path d="M230.07,201.3a.64.64,0,1,1,.63.68A.63.63,0,0,1,230.07,201.3Z" style="fill: rgb(255, 255, 255); transform-origin: 230.708px 201.34px;" id="elmhtdz153p4l" class="animable"></path><path d="M232.28,201.3a.63.63,0,0,1,.64-.67.68.68,0,0,1,0,1.35A.63.63,0,0,1,232.28,201.3Z" style="fill: rgb(255, 255, 255); transform-origin: 232.898px 201.305px;" id="elzbru0gc7ql" class="animable"></path><path d="M236.94,201.86c0-.35,0-.88,0-1.34v-6.25h.93v3.25h0a1.92,1.92,0,0,1,1.76-1c1.28,0,2.19,1.07,2.18,2.64,0,1.85-1.16,2.77-2.32,2.77a1.83,1.83,0,0,1-1.73-1h0l-.05.86Zm1-2.07a2,2,0,0,0,.05.34,1.45,1.45,0,0,0,1.41,1.1c1,0,1.57-.8,1.57-2s-.53-1.93-1.54-1.93a1.5,1.5,0,0,0-1.43,1.16,1.89,1.89,0,0,0-.06.38Z" style="fill: rgb(255, 255, 255); transform-origin: 239.375px 198.101px;" id="elm8vh98zzic" class="animable"></path><path d="M245.93,201.86l-.07-.65h0a2,2,0,0,1-1.59.77,1.47,1.47,0,0,1-1.58-1.49c0-1.25,1.11-1.93,3.11-1.92v-.11a1.07,1.07,0,0,0-1.17-1.2,2.52,2.52,0,0,0-1.35.39L243,197a3.21,3.21,0,0,1,1.7-.46c1.59,0,2,1.08,2,2.11v1.94a6.68,6.68,0,0,0,.09,1.24Zm-.14-2.64c-1,0-2.19.16-2.19,1.16a.84.84,0,0,0,.89.9,1.3,1.3,0,0,0,1.25-.86,1.11,1.11,0,0,0,0-.3Z" style="fill: rgb(255, 255, 255); transform-origin: 244.74px 199.262px;" id="el2srmscvvevp" class="animable"></path><path d="M248.18,201.86c0-.35,0-.88,0-1.34v-6.25h.93v3.25h0a1.92,1.92,0,0,1,1.77-1c1.28,0,2.19,1.07,2.18,2.64,0,1.85-1.17,2.77-2.32,2.77a1.85,1.85,0,0,1-1.74-1h0l0,.86Zm1-2.07a2,2,0,0,0,0,.34,1.45,1.45,0,0,0,1.41,1.1c1,0,1.58-.8,1.58-2s-.54-1.93-1.54-1.93a1.51,1.51,0,0,0-1.44,1.16,2,2,0,0,0,0,.38Z" style="fill: rgb(255, 255, 255); transform-origin: 250.62px 198.101px;" id="el5oeuq3sz1mp" class="animable"></path><path d="M254.57,196.68l1.13,3.06c.12.34.25.75.33,1.06h0c.09-.31.2-.7.33-1.08l1-3h1L257,200.37a7.89,7.89,0,0,1-1.78,3.24,2.5,2.5,0,0,1-1.15.61l-.24-.79a2.21,2.21,0,0,0,.82-.46,2.8,2.8,0,0,0,.8-1.05.67.67,0,0,0,.07-.22.93.93,0,0,0-.06-.25l-1.92-4.77Z" style="fill: rgb(255, 255, 255); transform-origin: 255.95px 200.45px;" id="el8oimf4opf4i" class="animable"></path><path d="M258.62,201.3a.63.63,0,0,1,.64-.67.68.68,0,0,1,0,1.35A.63.63,0,0,1,258.62,201.3Z" style="fill: rgb(255, 255, 255); transform-origin: 259.238px 201.305px;" id="ellj69lqp8g7" class="animable"></path><path d="M260.83,201.3a.64.64,0,1,1,.63.68A.63.63,0,0,1,260.83,201.3Z" style="fill: rgb(255, 255, 255); transform-origin: 261.468px 201.34px;" id="eliev0cprvob" class="animable"></path><path d="M213.09,214.18a2.53,2.53,0,0,1-2.58,2.75,2.46,2.46,0,0,1-2.48-2.66,2.52,2.52,0,0,1,2.57-2.75A2.45,2.45,0,0,1,213.09,214.18Zm-4.11,0c0,1.14.65,2,1.57,2s1.58-.84,1.58-2c0-.87-.44-2-1.56-2S209,213.25,209,214.23Z" style="fill: rgb(255, 255, 255); transform-origin: 210.56px 214.225px;" id="el2sf6e8jd8c2" class="animable"></path><path d="M219,214.18a2.53,2.53,0,0,1-2.58,2.75,2.46,2.46,0,0,1-2.48-2.66,2.52,2.52,0,0,1,2.57-2.75A2.45,2.45,0,0,1,219,214.18Zm-4.11,0c0,1.14.65,2,1.57,2s1.57-.84,1.57-2c0-.87-.43-2-1.55-2S214.85,213.25,214.85,214.23Z" style="fill: rgb(255, 255, 255); transform-origin: 216.47px 214.225px;" id="elg3oox5xgbt" class="animable"></path><path d="M224.83,214.18a2.53,2.53,0,0,1-2.58,2.75,2.46,2.46,0,0,1-2.48-2.66,2.52,2.52,0,0,1,2.56-2.75A2.45,2.45,0,0,1,224.83,214.18Zm-4.11,0c0,1.14.65,2,1.57,2s1.57-.84,1.57-2c0-.87-.44-2-1.55-2S220.72,213.25,220.72,214.23Z" style="fill: rgb(255, 255, 255); transform-origin: 222.3px 214.225px;" id="elw4vnciil31" class="animable"></path><path d="M230.69,214.18a2.52,2.52,0,0,1-2.57,2.75,2.46,2.46,0,0,1-2.48-2.66,2.52,2.52,0,0,1,2.56-2.75A2.45,2.45,0,0,1,230.69,214.18Zm-4.1,0c0,1.14.65,2,1.57,2s1.57-.84,1.57-2c0-.87-.44-2-1.55-2S226.59,213.25,226.59,214.23Z" style="fill: rgb(255, 255, 255); transform-origin: 228.165px 214.225px;" id="el1nffe3ix3xi" class="animable"></path><path d="M236.56,214.18a2.52,2.52,0,0,1-2.57,2.75,2.47,2.47,0,0,1-2.49-2.66,2.53,2.53,0,0,1,2.57-2.75A2.45,2.45,0,0,1,236.56,214.18Zm-4.1,0c0,1.14.65,2,1.57,2s1.57-.84,1.57-2c0-.87-.44-2-1.55-2S232.46,213.25,232.46,214.23Z" style="fill: rgb(255, 255, 255); transform-origin: 234.03px 214.225px;" id="eleajf0wir5xa" class="animable"></path><path d="M237.75,209.22h.94v3.23h0a1.82,1.82,0,0,1,.68-.67,1.88,1.88,0,0,1,1-.26c.69,0,1.81.43,1.81,2.21v3.08h-.95v-3c0-.84-.31-1.54-1.19-1.54a1.36,1.36,0,0,0-1.27.94,1.23,1.23,0,0,0-.06.45v3.12h-.94Z" style="fill: rgb(255, 255, 255); transform-origin: 239.965px 213.015px;" id="el4a9yljky8se" class="animable"></path><path d="M243.68,209.22h.94v3.23h0a1.82,1.82,0,0,1,.68-.67,1.94,1.94,0,0,1,1-.26c.7,0,1.81.43,1.81,2.21v3.08h-.94v-3c0-.84-.31-1.54-1.2-1.54a1.35,1.35,0,0,0-1.26.94,1,1,0,0,0-.07.45v3.12h-.94Z" style="fill: rgb(255, 255, 255); transform-origin: 245.895px 213.015px;" id="el07egpqy7ei0i" class="animable"></path><path d="M249.61,209.22h.95v3.23h0a1.79,1.79,0,0,1,.67-.67,1.94,1.94,0,0,1,1-.26c.7,0,1.81.43,1.81,2.21v3.08h-.94v-3c0-.84-.31-1.54-1.2-1.54a1.35,1.35,0,0,0-1.26.94,1.23,1.23,0,0,0-.06.45v3.12h-.95Z" style="fill: rgb(255, 255, 255); transform-origin: 251.825px 213.015px;" id="elnx3qn3d25" class="animable"></path><path d="M255.32,216.26a.64.64,0,0,1,.65-.68.68.68,0,1,1-.65.68Z" style="fill: rgb(255, 255, 255); transform-origin: 255.999px 216.259px;" id="elj9szkxui1y" class="animable"></path><path d="M257.54,216.26a.64.64,0,1,1,.63.67A.63.63,0,0,1,257.54,216.26Z" style="fill: rgb(255, 255, 255); transform-origin: 258.179px 216.29px;" id="elj4p886fslmf" class="animable"></path><path d="M259.75,216.26a.64.64,0,0,1,.64-.68.63.63,0,0,1,.63.68.62.62,0,0,1-.64.67A.63.63,0,0,1,259.75,216.26Z" style="fill: rgb(255, 255, 255); transform-origin: 260.385px 216.255px;" id="el4fidzgxv97k" class="animable"></path><g id="elxxhsdfaazpk"><path d="M264.79,211.63l1.14,3.06c.12.35.24.75.33,1.06h0c.1-.31.2-.7.33-1.08l1-3h1l-1.41,3.7a7.93,7.93,0,0,1-1.77,3.24,2.69,2.69,0,0,1-1.16.61l-.23-.8a2.38,2.38,0,0,0,.82-.46,2.72,2.72,0,0,0,.79-1,.9.9,0,0,0,.08-.23.93.93,0,0,0-.07-.24l-1.91-4.78Z" style="opacity: 0.3; transform-origin: 266.16px 215.425px;" class="animable" id="el774db4wv395"></path></g><g id="elqc4crfpz43p"><path d="M269.9,214.39a1.67,1.67,0,0,0,1.78,1.8,3.38,3.38,0,0,0,1.43-.27l.16.68a4.15,4.15,0,0,1-1.72.32,2.4,2.4,0,0,1-2.54-2.61,2.51,2.51,0,0,1,2.42-2.79,2.19,2.19,0,0,1,2.14,2.44,3.55,3.55,0,0,1,0,.43Zm2.76-.67a1.34,1.34,0,0,0-1.3-1.53,1.57,1.57,0,0,0-1.45,1.53Z" style="opacity: 0.3; transform-origin: 271.289px 214.222px;" class="animable" id="elzff0x8hudi9"></path></g><g id="elm959f9e366"><path d="M277.6,216.81l-.07-.65h0a1.93,1.93,0,0,1-1.59.77,1.47,1.47,0,0,1-1.58-1.49c0-1.25,1.11-1.93,3.11-1.92v-.11a1.07,1.07,0,0,0-1.17-1.2,2.52,2.52,0,0,0-1.35.39l-.22-.62a3.21,3.21,0,0,1,1.7-.46c1.59,0,2,1.08,2,2.12v1.93a6.68,6.68,0,0,0,.09,1.24Zm-.14-2.64c-1,0-2.19.16-2.19,1.17a.83.83,0,0,0,.89.89,1.28,1.28,0,0,0,1.25-.86,1.11,1.11,0,0,0,0-.3Z" style="opacity: 0.3; transform-origin: 276.44px 214.227px;" class="animable" id="el5f25pl910eg"></path></g><g id="elhsrypoag0kn"><path d="M279.89,209.22h.94v3.23h0a1.82,1.82,0,0,1,.68-.67,1.91,1.91,0,0,1,1-.26c.69,0,1.81.43,1.81,2.21v3.08h-.95v-3c0-.84-.31-1.54-1.19-1.54a1.37,1.37,0,0,0-1.27.94,1.23,1.23,0,0,0-.06.45v3.12h-.94Z" style="opacity: 0.3; transform-origin: 282.105px 213.015px;" class="animable" id="el62f8v9a141e"></path></g><g id="elb11ki8bt2ya"><path d="M285.64,216.27a.63.63,0,0,1,.63-.67.67.67,0,0,1,0,1.33A.63.63,0,0,1,285.64,216.27Zm.27-1.53-.15-5.14h1l-.14,5.14Z" style="opacity: 0.3; transform-origin: 286.249px 213.265px;" class="animable" id="elaunt3a67xj"></path></g><g id="el8mhpnyqico4"><g style="opacity: 0.3; transform-origin: 235.43px 233.585px;" class="animable" id="elsmkc53kxbo9"><path d="M208.75,229.06a8.7,8.7,0,0,1,1.7-.15,3,3,0,0,1,2,.52,1.54,1.54,0,0,1,.6,1.28,1.72,1.72,0,0,1-1.22,1.58v0a1.87,1.87,0,0,1,1.49,1.81,1.94,1.94,0,0,1-.61,1.44,3.65,3.65,0,0,1-2.5.68,11.15,11.15,0,0,1-1.44-.09Zm.93,2.95h.85c1,0,1.56-.51,1.56-1.21s-.64-1.17-1.59-1.17a4.28,4.28,0,0,0-.82.06Zm0,3.46a5.3,5.3,0,0,0,.78,0c1,0,1.85-.35,1.85-1.4s-.84-1.39-1.86-1.39h-.77Z" id="elkvtsjr7aq9" class="animable" style="transform-origin: 211.035px 232.567px;"></path><path d="M217.38,236.17l-.08-.65h0a1.91,1.91,0,0,1-1.58.77,1.47,1.47,0,0,1-1.58-1.49c0-1.25,1.11-1.93,3.11-1.92v-.11a1.07,1.07,0,0,0-1.18-1.2,2.57,2.57,0,0,0-1.35.39l-.21-.62a3.21,3.21,0,0,1,1.7-.46c1.58,0,2,1.08,2,2.12v1.93a7.75,7.75,0,0,0,.08,1.24Zm-.14-2.64c-1,0-2.19.16-2.19,1.17a.82.82,0,0,0,.88.89,1.29,1.29,0,0,0,1.26-.86,1.11,1.11,0,0,0,.05-.3Z" id="elbzam17akrat" class="animable" style="transform-origin: 216.215px 233.587px;"></path><path d="M219.62,236.17c0-.35,0-.88,0-1.34v-6.25h.94v3.25h0a1.92,1.92,0,0,1,1.76-1c1.29,0,2.19,1.07,2.18,2.64,0,1.85-1.16,2.77-2.32,2.77a1.84,1.84,0,0,1-1.73-1h0l0,.85Zm1-2.07a2,2,0,0,0,0,.34,1.45,1.45,0,0,0,1.41,1.1c1,0,1.57-.8,1.57-2s-.53-1.92-1.54-1.92a1.49,1.49,0,0,0-1.43,1.15,2.06,2.06,0,0,0-.05.39Z" id="elq0725qedw0k" class="animable" style="transform-origin: 222.06px 232.411px;"></path><path d="M226,231l1.13,3.06c.12.35.25.75.33,1.06h0c.1-.31.21-.7.33-1.08l1-3h1l-1.42,3.69a7.91,7.91,0,0,1-1.77,3.25,2.69,2.69,0,0,1-1.16.61l-.23-.8a2.38,2.38,0,0,0,.82-.46,2.72,2.72,0,0,0,.79-1A.62.62,0,0,0,227,236a.64.64,0,0,0-.07-.24L225,231Z" id="elkhr9wcf9ujm" class="animable" style="transform-origin: 227.395px 234.795px;"></path><path d="M230.07,235.62a.64.64,0,1,1,.63.67A.63.63,0,0,1,230.07,235.62Z" id="elvn998odpze" class="animable" style="transform-origin: 230.709px 235.65px;"></path><path d="M232.28,235.62a.64.64,0,0,1,.64-.68.68.68,0,0,1,0,1.35A.63.63,0,0,1,232.28,235.62Z" id="elo2d0cu4dpk" class="animable" style="transform-origin: 232.898px 235.615px;"></path><path d="M236.94,236.17c0-.35,0-.88,0-1.34v-6.25h.93v3.25h0a1.92,1.92,0,0,1,1.76-1c1.28,0,2.19,1.07,2.18,2.64,0,1.85-1.16,2.77-2.32,2.77a1.84,1.84,0,0,1-1.73-1h0l-.05.85Zm1-2.07a2,2,0,0,0,.05.34,1.45,1.45,0,0,0,1.41,1.1c1,0,1.57-.8,1.57-2s-.53-1.92-1.54-1.92a1.49,1.49,0,0,0-1.43,1.15,2,2,0,0,0-.06.39Z" id="el8gg0ia7h1t" class="animable" style="transform-origin: 239.375px 232.411px;"></path><path d="M245.93,236.17l-.07-.65h0a1.93,1.93,0,0,1-1.59.77,1.47,1.47,0,0,1-1.58-1.49c0-1.25,1.11-1.93,3.11-1.92v-.11a1.07,1.07,0,0,0-1.17-1.2,2.52,2.52,0,0,0-1.35.39l-.22-.62a3.21,3.21,0,0,1,1.7-.46c1.59,0,2,1.08,2,2.12v1.93a6.68,6.68,0,0,0,.09,1.24Zm-.14-2.64c-1,0-2.19.16-2.19,1.17a.83.83,0,0,0,.89.89,1.28,1.28,0,0,0,1.25-.86,1.11,1.11,0,0,0,0-.3Z" id="elwdyum7ugmvo" class="animable" style="transform-origin: 244.77px 233.587px;"></path><path d="M248.18,236.17c0-.35,0-.88,0-1.34v-6.25h.93v3.25h0a1.92,1.92,0,0,1,1.77-1c1.28,0,2.19,1.07,2.18,2.64,0,1.85-1.17,2.77-2.32,2.77a1.86,1.86,0,0,1-1.74-1h0l0,.85Zm1-2.07a2,2,0,0,0,0,.34,1.45,1.45,0,0,0,1.41,1.1c1,0,1.58-.8,1.58-2s-.54-1.92-1.54-1.92a1.5,1.5,0,0,0-1.44,1.15,2.06,2.06,0,0,0,0,.39Z" id="eljhzze8z5rg" class="animable" style="transform-origin: 250.62px 232.411px;"></path><path d="M254.57,231l1.13,3.06c.12.35.25.75.33,1.06h0c.09-.31.2-.7.33-1.08l1-3h1L257,234.68a8,8,0,0,1-1.78,3.25,2.72,2.72,0,0,1-1.15.61l-.24-.8a2.21,2.21,0,0,0,.82-.46,2.84,2.84,0,0,0,.8-1,.79.79,0,0,0,.07-.23.81.81,0,0,0-.06-.24L253.54,231Z" id="elg4czcpvevvf" class="animable" style="transform-origin: 255.95px 234.77px;"></path><path d="M258.62,235.62a.64.64,0,0,1,.64-.68.68.68,0,0,1,0,1.35A.63.63,0,0,1,258.62,235.62Z" id="el8yhi55q04rx" class="animable" style="transform-origin: 259.238px 235.615px;"></path><path d="M260.83,235.62a.64.64,0,1,1,1.28,0,.64.64,0,1,1-1.28,0Z" id="ely7by7z05oof" class="animable" style="transform-origin: 261.47px 235.62px;"></path></g></g><g id="elk1ulstgzb3p"><g style="opacity: 0.3; transform-origin: 247.439px 248.55px;" class="animable" id="elrufn4ya6899"><path d="M213.09,248.49a2.53,2.53,0,0,1-2.58,2.75,2.46,2.46,0,0,1-2.48-2.66,2.53,2.53,0,0,1,2.57-2.75A2.45,2.45,0,0,1,213.09,248.49Zm-4.11.06c0,1.13.65,2,1.57,2s1.58-.85,1.58-2c0-.87-.44-2-1.56-2S209,247.56,209,248.55Z" id="elfsnrfqz7eov" class="animable" style="transform-origin: 210.56px 248.535px;"></path><path d="M219,248.49a2.53,2.53,0,0,1-2.58,2.75,2.46,2.46,0,0,1-2.48-2.66,2.53,2.53,0,0,1,2.57-2.75A2.45,2.45,0,0,1,219,248.49Zm-4.11.06c0,1.13.65,2,1.57,2s1.57-.85,1.57-2c0-.87-.43-2-1.55-2S214.85,247.56,214.85,248.55Z" id="eliuy8jb6vtd" class="animable" style="transform-origin: 216.47px 248.535px;"></path><path d="M224.83,248.49a2.53,2.53,0,0,1-2.58,2.75,2.46,2.46,0,0,1-2.48-2.66,2.53,2.53,0,0,1,2.56-2.75A2.45,2.45,0,0,1,224.83,248.49Zm-4.11.06c0,1.13.65,2,1.57,2s1.57-.85,1.57-2c0-.87-.44-2-1.55-2S220.72,247.56,220.72,248.55Z" id="elmhqlatkk1gj" class="animable" style="transform-origin: 222.3px 248.535px;"></path><path d="M230.69,248.49a2.52,2.52,0,0,1-2.57,2.75,2.46,2.46,0,0,1-2.48-2.66,2.53,2.53,0,0,1,2.56-2.75A2.45,2.45,0,0,1,230.69,248.49Zm-4.1.06c0,1.13.65,2,1.57,2s1.57-.85,1.57-2c0-.87-.44-2-1.55-2S226.59,247.56,226.59,248.55Z" id="elmwws53awgo" class="animable" style="transform-origin: 228.165px 248.535px;"></path><path d="M236.56,248.49a2.52,2.52,0,0,1-2.57,2.75,2.47,2.47,0,0,1-2.49-2.66,2.53,2.53,0,0,1,2.57-2.75A2.45,2.45,0,0,1,236.56,248.49Zm-4.1.06c0,1.13.65,2,1.57,2s1.57-.85,1.57-2c0-.87-.44-2-1.55-2S232.46,247.56,232.46,248.55Z" id="ellzk9ry3i75" class="animable" style="transform-origin: 234.03px 248.535px;"></path><path d="M237.75,243.53h.94v3.23h0a1.73,1.73,0,0,1,.68-.66,1.89,1.89,0,0,1,1-.27c.69,0,1.81.43,1.81,2.21v3.08h-.95v-3c0-.83-.31-1.54-1.19-1.54a1.36,1.36,0,0,0-1.27.94,1.23,1.23,0,0,0-.06.45v3.12h-.94Z" id="elcu02efhnhj" class="animable" style="transform-origin: 239.965px 247.325px;"></path><path d="M243.68,243.53h.94v3.23h0a1.73,1.73,0,0,1,.68-.66,2,2,0,0,1,1-.27c.7,0,1.81.43,1.81,2.21v3.08h-.94v-3c0-.83-.31-1.54-1.2-1.54a1.35,1.35,0,0,0-1.26.94,1,1,0,0,0-.07.45v3.12h-.94Z" id="el6ilhardkafe" class="animable" style="transform-origin: 245.895px 247.325px;"></path><path d="M249.61,243.53h.95v3.23h0a1.7,1.7,0,0,1,.67-.66,2,2,0,0,1,1-.27c.7,0,1.81.43,1.81,2.21v3.08h-.94v-3c0-.83-.31-1.54-1.2-1.54a1.35,1.35,0,0,0-1.26.94,1.23,1.23,0,0,0-.06.45v3.12h-.95Z" id="elfdy5qpj0tso" class="animable" style="transform-origin: 251.825px 247.325px;"></path><path d="M255.32,250.57a.64.64,0,0,1,.65-.68.68.68,0,1,1-.65.68Z" id="elbjtlfka51n8" class="animable" style="transform-origin: 255.999px 250.569px;"></path><path d="M257.54,250.57a.64.64,0,1,1,.63.67A.63.63,0,0,1,257.54,250.57Z" id="el5g1we9gqd3" class="animable" style="transform-origin: 258.179px 250.6px;"></path><path d="M259.75,250.57a.64.64,0,0,1,.64-.68.63.63,0,0,1,.63.68.62.62,0,0,1-.64.67A.63.63,0,0,1,259.75,250.57Z" id="elow87sof1ef" class="animable" style="transform-origin: 260.385px 250.565px;"></path><path d="M264.79,246l1.14,3.06c.12.34.24.74.33,1.05h0c.1-.31.2-.7.33-1.08l1-3h1l-1.41,3.69a7.93,7.93,0,0,1-1.77,3.24,2.69,2.69,0,0,1-1.16.61l-.23-.79a2.77,2.77,0,0,0,.82-.46,2.85,2.85,0,0,0,.79-1.05.79.79,0,0,0,.08-.23.93.93,0,0,0-.07-.24L263.77,246Z" id="el0haxly2dbb9a" class="animable" style="transform-origin: 266.18px 249.785px;"></path><path d="M269.9,248.71a1.66,1.66,0,0,0,1.78,1.79,3.4,3.4,0,0,0,1.43-.26l.16.67a4.15,4.15,0,0,1-1.72.32,2.4,2.4,0,0,1-2.54-2.61,2.51,2.51,0,0,1,2.42-2.79,2.2,2.2,0,0,1,2.14,2.44,3.94,3.94,0,0,1,0,.44Zm2.76-.68a1.34,1.34,0,0,0-1.3-1.53,1.57,1.57,0,0,0-1.45,1.53Z" id="elfhhfgnmm57p" class="animable" style="transform-origin: 271.289px 248.532px;"></path><path d="M277.6,251.12l-.07-.65h0a1.93,1.93,0,0,1-1.59.77,1.47,1.47,0,0,1-1.58-1.49c0-1.25,1.11-1.93,3.11-1.92v-.11a1.07,1.07,0,0,0-1.17-1.2,2.52,2.52,0,0,0-1.35.39l-.22-.62a3.21,3.21,0,0,1,1.7-.46c1.59,0,2,1.08,2,2.12v1.93a6.68,6.68,0,0,0,.09,1.24Zm-.14-2.64c-1,0-2.19.16-2.19,1.17a.84.84,0,0,0,.89.9,1.29,1.29,0,0,0,1.25-.87,1,1,0,0,0,0-.3Z" id="el24lg1egyolwh" class="animable" style="transform-origin: 276.44px 248.537px;"></path><path d="M279.89,243.53h.94v3.23h0a1.73,1.73,0,0,1,.68-.66,1.92,1.92,0,0,1,1-.27c.69,0,1.81.43,1.81,2.21v3.08h-.95v-3c0-.83-.31-1.54-1.19-1.54a1.37,1.37,0,0,0-1.27.94,1.23,1.23,0,0,0-.06.45v3.12h-.94Z" id="elh8by6f9lmi7" class="animable" style="transform-origin: 282.105px 247.325px;"></path><path d="M285.64,250.58a.63.63,0,0,1,.63-.67.67.67,0,0,1,0,1.33A.63.63,0,0,1,285.64,250.58Zm.27-1.53-.15-5.14h1l-.14,5.14Z" id="elxj1qhxvbol" class="animable" style="transform-origin: 286.249px 247.575px;"></path></g></g></g><g id="freepik--character-2--inject-2" class="animable" style="transform-origin: 347.773px 322.913px;"><path d="M349.56,267.9c-9.73-.31-27.54,15.23-32.86,14.68-4-.42-14.6-4.55-19.52-6.53a3,3,0,0,0-3.82,1.46l-1.84,3.73a3,3,0,0,0,1.52,4.1c5.8,2.44,18.7,7.74,24.45,9,7.53,1.66,31.42-8.42,31.42-8.42Z" style="fill: #FF5A60; transform-origin: 320.383px 281.21px;" id="el7dwxmc8yne" class="animable"></path><g id="el7a3tws2ve8f"><path d="M349.56,267.9c-9.73-.31-27.54,15.23-32.86,14.68-4-.42-14.6-4.55-19.52-6.53a3,3,0,0,0-3.82,1.46l-1.84,3.73a3,3,0,0,0,1.52,4.1c5.8,2.44,18.7,7.74,24.45,9,7.53,1.66,31.42-8.42,31.42-8.42Z" style="fill: rgb(255, 255, 255); opacity: 0.6; transform-origin: 320.383px 281.21px;" class="animable" id="elfh39lcq9lc"></path></g><polygon points="300.76 411.38 293.45 410.42 288.04 394.59 295.35 395.55 300.76 411.38" style="fill: rgb(238, 193, 187); transform-origin: 294.4px 402.985px;" id="eljptnofgnv4r" class="animable"></polygon><path d="M292.45,409.63h9a.65.65,0,0,1,.64.5l1.52,6.56a1.07,1.07,0,0,1-1.07,1.31c-2.89-.05-5-.22-8.65-.22-2.24,0-9,.23-12.09.23s-3.53-3.06-2.27-3.34c5.67-1.24,9.94-2.95,11.74-4.59A1.78,1.78,0,0,1,292.45,409.63Z" style="fill: rgb(38, 50, 56); transform-origin: 291.255px 413.82px;" id="elfmu3od46rcf" class="animable"></path><path d="M388.24,275.16A117.69,117.69,0,0,0,381,294.47c-1.31,4.6-2.32,9-3.11,13-1.87,9.42-2.57,16.69-3.24,19.1l-38.75-6.92c-.77-35,11.73-51.48,11.73-51.48a93.31,93.31,0,0,1,9.47.17c.67,0,1.35.1,2,.18,4.43.45,11.57,1.86,16.48,2.93,1,.23,2.07.49,3.08.74C383.78,273.56,388.24,275.16,388.24,275.16Z" style="fill: #FF5A60; transform-origin: 362.053px 297.345px;" id="el0spd4zj914hq" class="animable"></path><g id="elg1jsfua0dyd"><path d="M388.25,275.16a113.05,113.05,0,0,0-6.8,17.66c-.17.55-.33,1.1-.49,1.65-1.31,4.6-2.32,9-3.11,13-.67,3.4-1.2,6.52-1.62,9.23-.75,4.8-1.19,8.33-1.62,9.87l-38.75-6.92c-.77-35,11.73-51.48,11.73-51.48a93.31,93.31,0,0,1,9.47.17c.67,0,1.35.1,2,.18,4.43.45,11.57,1.86,16.48,2.93,1,.23,2.07.49,3.08.74C383.78,273.56,388.25,275.16,388.25,275.16Z" style="fill: rgb(255, 255, 255); opacity: 0.6; transform-origin: 362.038px 297.345px;" class="animable" id="elribk2biebh"></path></g><path d="M374.73,254.05c-2.05,5.09-5,14.58-1.93,18.86a16.62,16.62,0,0,1-13.65,2.48c-4.54-1-4.15-4.25-2.8-5.81,6.17-.21,6.86-4.63,6.63-8.95Z" style="fill: rgb(238, 193, 187); transform-origin: 365.087px 264.98px;" id="elry501fzfxr" class="animable"></path><g id="elqrih7bgiw3d"><path d="M369.94,256.74l-7,3.89a17.83,17.83,0,0,1-.05,3c2.32.13,5.89-1.72,6.58-4A7.88,7.88,0,0,0,369.94,256.74Z" style="opacity: 0.2; transform-origin: 366.416px 260.188px;" class="animable" id="elgai732n4w1b"></path></g><polygon points="284.98 402.07 300.64 399.31 299.77 394.64 283.25 396.57 284.98 402.07" style="fill: rgb(38, 50, 56); transform-origin: 291.945px 398.355px;" id="ell7n6mjlulag" class="animable"></polygon><path d="M361.31,235.64c-2,2.2-4,7.69.37,7.65S364.76,231.87,361.31,235.64Z" style="fill: rgb(38, 50, 56); transform-origin: 361.764px 239.082px;" id="el8mzk733bmhm" class="animable"></path><path d="M378.23,247.77c-2.69,6.79-3.92,10.91-8.58,13.3-7,3.58-14.53-2.48-13.92-10,.55-6.73,4.85-16.72,12.53-17.19A10.09,10.09,0,0,1,378.23,247.77Z" style="fill: rgb(238, 193, 187); transform-origin: 367.338px 247.994px;" id="elxfx7dmgg1bk" class="animable"></path><path d="M363.17,238.32c-4.57-2.28-6-8.64,1.56-10.28a15.79,15.79,0,0,1,5.3,0s-2,1.22-1.29,3.05a7.36,7.36,0,0,1,8.72-1.14c-1.42,1.11-1.73,4.58.89,4.65,4,.11,8.57,3,6.27,7,3.35,4.19-1.87,10-9.27,10.6-2-4.06,1.24-10.07,1.24-10.07C372.87,242,367.31,240.39,363.17,238.32Z" style="fill: rgb(38, 50, 56); transform-origin: 372.529px 240.008px;" id="elnldmtd51ekh" class="animable"></path><path d="M383.51,241.72s3.38-.48,2.23-3.66C388.27,240.18,386.43,242.13,383.51,241.72Z" style="fill: rgb(38, 50, 56); transform-origin: 385.223px 239.917px;" id="elqyg5bo4se2" class="animable"></path><path d="M382.82,242.24s3.28-1,3.53,2.41C387.79,241.69,385.31,240.67,382.82,242.24Z" style="fill: rgb(38, 50, 56); transform-origin: 384.798px 243.079px;" id="elh9zpuzh63ns" class="animable"></path><path d="M379,254.42a6.83,6.83,0,0,1-4.51,2.76c-2.4.36-3.32-1.88-2.41-4,.82-1.9,3-4.39,5.35-3.77A3.15,3.15,0,0,1,379,254.42Z" style="fill: rgb(238, 193, 187); transform-origin: 375.719px 253.266px;" id="elk4kgs3jvnr" class="animable"></path><path d="M367.09,246.16c-.19.57-.64.93-1,.8s-.52-.68-.34-1.25.63-.92,1-.79S367.27,245.6,367.09,246.16Z" style="fill: rgb(38, 50, 56); transform-origin: 366.421px 245.94px;" id="el46qzjb1exfl" class="animable"></path><path d="M360.71,244c-.18.57-.63.93-1,.8s-.52-.68-.33-1.25.63-.92,1-.79S360.89,243.45,360.71,244Z" style="fill: rgb(38, 50, 56); transform-origin: 360.043px 243.78px;" id="el5ob1dwx1mvo" class="animable"></path><path d="M362.65,245a20.74,20.74,0,0,1-4.26,3.74,3.53,3.53,0,0,0,2.53,1.36Z" style="fill: rgb(212, 130, 125); transform-origin: 360.52px 247.55px;" id="ellg72od3yodi" class="animable"></path><path d="M369.73,244.76a.33.33,0,0,1-.27-.23,2.81,2.81,0,0,0-1.76-1.82.36.36,0,0,1-.26-.43.35.35,0,0,1,.43-.25,3.52,3.52,0,0,1,2.25,2.28.35.35,0,0,1-.22.44A.33.33,0,0,1,369.73,244.76Z" style="fill: rgb(38, 50, 56); transform-origin: 368.784px 243.392px;" id="el2itl2z7se3f" class="animable"></path><path d="M358.68,240.89a.31.31,0,0,1-.18-.09.36.36,0,0,1,0-.5,3.43,3.43,0,0,1,3-1.06.35.35,0,0,1,.28.41.34.34,0,0,1-.41.27,2.71,2.71,0,0,0-2.36.87A.33.33,0,0,1,358.68,240.89Z" style="fill: rgb(38, 50, 56); transform-origin: 360.093px 240.053px;" id="eleq42uw3dra5" class="animable"></path><path d="M360,252.82a29,29,0,0,1,1.77,3.77q.36-.06.72-.15c3.25-.7,4.52-2.11,4.95-3.44a4.31,4.31,0,0,0,.09-2,4.19,4.19,0,0,0-.34-1.11c-1.49,1.4-4.47,2.29-6.08,2.7C360.44,252.74,360,252.82,360,252.82Z" style="fill: rgb(38, 50, 56); transform-origin: 363.804px 253.24px;" id="el596wma9gugh" class="animable"></path><path d="M361.11,252.56l.55,1.1c3-.67,5.12-1.56,5.87-2.69a4.19,4.19,0,0,0-.34-1.11C365.7,251.26,362.72,252.15,361.11,252.56Z" style="fill: rgb(255, 255, 255); transform-origin: 364.32px 251.76px;" id="el72wppgdw976" class="animable"></path><path d="M362.49,256.44c3.25-.7,4.52-2.11,4.95-3.44a10.55,10.55,0,0,0-3.46,1.5A4,4,0,0,0,362.49,256.44Z" style="fill: rgb(222, 87, 83); transform-origin: 364.965px 254.72px;" id="el1ofmk6twyru" class="animable"></path><path d="M290,410.92a2.28,2.28,0,0,1-1.43-.38,1.07,1.07,0,0,1-.37-.92.57.57,0,0,1,.3-.5c.81-.42,3.2,1,3.47,1.21a.18.18,0,0,1,.08.18.17.17,0,0,1-.13.14A8.79,8.79,0,0,1,290,410.92Zm-1.12-1.53a.48.48,0,0,0-.22,0c-.05,0-.1.07-.11.21a.74.74,0,0,0,.24.63,3.56,3.56,0,0,0,2.62.14A6.92,6.92,0,0,0,288.91,409.39Z" style="fill: #FF5A60; transform-origin: 290.124px 409.984px;" id="el89rs2ay4yov" class="animable"></path><path d="M291.91,410.66a.11.11,0,0,1-.08,0c-.77-.41-2.26-2-2.11-2.85,0-.15.13-.4.55-.46a1,1,0,0,1,.74.23c.87.7,1.07,2.83,1.07,2.92a.17.17,0,0,1-.07.16A.17.17,0,0,1,291.91,410.66Zm-1.52-3h-.08c-.22,0-.24.13-.25.18-.09.48.87,1.7,1.63,2.28a4.26,4.26,0,0,0-.89-2.31A.65.65,0,0,0,290.39,407.67Z" style="fill: #FF5A60; transform-origin: 290.895px 409.006px;" id="elqo7sa9m05xo" class="animable"></path><polygon points="419.92 395.78 419.39 403.14 403.9 407.46 404.43 400.1 419.92 395.78" style="fill: rgb(238, 193, 187); transform-origin: 411.91px 401.62px;" id="el5mrcx0ij7pl" class="animable"></polygon><path d="M418.65,404.18l-.52-9a.65.65,0,0,1,.47-.66l6.45-1.9a1.07,1.07,0,0,1,1.37,1c.12,2.89.08,5,.29,8.64.13,2.24.76,9,.94,12.06s-2.85,3.71-3.2,2.46c-1.58-5.59-3.54-9.74-5.27-11.45A1.77,1.77,0,0,1,418.65,404.18Z" style="fill: rgb(38, 50, 56); transform-origin: 422.893px 404.978px;" id="el2mimgpkff86" class="animable"></path><path d="M420.08,406.52a2.3,2.3,0,0,1-.29,1.45,1.06,1.06,0,0,1-.9.42.55.55,0,0,1-.51-.26c-.47-.79.85-3.26,1-3.54a.18.18,0,0,1,.17-.1.2.2,0,0,1,.15.13A8.77,8.77,0,0,1,420.08,406.52Zm-1.46,1.2a.7.7,0,0,0,.06.23.22.22,0,0,0,.21.09.71.71,0,0,0,.62-.28,3.6,3.6,0,0,0,0-2.62A7.23,7.23,0,0,0,418.62,407.72Z" style="fill: #FF5A60; transform-origin: 419.189px 406.441px;" id="els8fgbzeuc9" class="animable"></path><path d="M419.71,404.66a.25.25,0,0,1,0,.08c-.37.79-1.9,2.37-2.73,2.27-.15,0-.41-.11-.49-.52a1,1,0,0,1,.18-.76c.65-.9,2.77-1.22,2.85-1.23a.18.18,0,0,1,.17.06A.17.17,0,0,1,419.71,404.66Zm-2.89,1.69a.17.17,0,0,0,0,.07c0,.23.14.24.19.25.49.06,1.65-1,2.18-1.76a4.24,4.24,0,0,0-2.25,1A.58.58,0,0,0,416.82,406.35Z" style="fill: #FF5A60; transform-origin: 418.095px 405.756px;" id="el9dsxao1l3yi" class="animable"></path><path d="M288.33,279.16l-8-.69,4.53-7.67s7.1,1.05,6.4,4.68Z" style="fill: rgb(238, 193, 187); transform-origin: 285.819px 274.98px;" id="el6fzdfcs2wxo" class="animable"></path><polygon points="273.93 273.75 280.06 268.48 284.86 270.8 280.33 278.47 273.93 273.75" style="fill: rgb(238, 193, 187); transform-origin: 279.395px 273.475px;" id="elftwa9c33jz" class="animable"></polygon><path d="M410.38,409.21s-19,8.8-46.65,8.8c-16.61,0-20.81-59.45-20.81-59.45s-14.34-1.92-27.92-3.34c-10.2-1.07-20-1.86-22.91-1.32-6.84,1.24,5.7,44,5.7,44H285.23s-24.76-45.53-15.11-61.2c8.76-14.2,62.77-11.18,62.77-11.18l3-6.17,38.73,7.22s-4.15,64-1.83,72.33c.94,3.39,36.28-1.87,36.28-1.87Z" style="fill: rgb(38, 50, 56); transform-origin: 339.134px 368.68px;" id="el9o8ugkyoecc" class="animable"></path><g id="ely9cyzsac8ga"><polygon points="284.98 402.07 300.64 399.31 299.77 394.64 283.25 396.57 284.98 402.07" style="fill: rgb(255, 255, 255); opacity: 0.3; transform-origin: 291.945px 398.355px;" class="animable" id="elrf2mbl90ua"></polygon></g><polygon points="411.89 411.29 411.73 395.38 406.97 395.48 406.18 412.09 411.89 411.29" style="fill: rgb(38, 50, 56); transform-origin: 409.035px 403.735px;" id="el7lv40l0wqme" class="animable"></polygon><g id="elwk0s7coizm"><polygon points="411.89 411.29 411.73 395.38 406.97 395.48 406.18 412.09 411.89 411.29" style="fill: rgb(255, 255, 255); opacity: 0.3; transform-origin: 409.035px 403.735px;" class="animable" id="el7vsl4xm7k22"></polygon></g><g id="el75cxd76g9u6"><path d="M342.92,351.9v6.66s-14.34-1.92-27.92-3.34C324.51,351.76,342.92,351.9,342.92,351.9Z" style="opacity: 0.2; transform-origin: 328.96px 355.23px;" class="animable" id="eljicp4x3encb"></path></g><path d="M359,275.36s1.28,2.56,2.86,5.15c3.31-1,11.2-3.73,11.76-7.72a4.08,4.08,0,0,0-1.52-2.25A43.56,43.56,0,0,1,359,275.36Z" style="fill: #FF5A60; transform-origin: 366.31px 275.525px;" id="elans33tqwrge" class="animable"></path><path d="M359,275.36a21.18,21.18,0,0,0-4.8,3.51c-1.83-1.95.93-9,1.92-9.65a5.11,5.11,0,0,1,3.12-.35S355.78,273.79,359,275.36Z" style="fill: #FF5A60; transform-origin: 356.414px 273.819px;" id="elj6w1vrusjub" class="animable"></path><g id="elpxxduex2us"><g style="opacity: 0.8; transform-origin: 363.604px 274.639px;" class="animable" id="elkafmx9ghgn"><path d="M359,275.36s1.28,2.56,2.86,5.15c3.31-1,11.2-3.73,11.76-7.72a4.08,4.08,0,0,0-1.52-2.25A43.56,43.56,0,0,1,359,275.36Z" style="fill: rgb(255, 255, 255); transform-origin: 366.31px 275.525px;" id="el5ek209a47no" class="animable"></path><path d="M359,275.36a21.18,21.18,0,0,0-4.8,3.51c-1.83-1.95.93-9,1.92-9.65a5.11,5.11,0,0,1,3.12-.35S355.78,273.79,359,275.36Z" style="fill: rgb(255, 255, 255); transform-origin: 356.414px 273.819px;" id="elidwaqi88bq9" class="animable"></path></g></g><g id="elcqp8p0xrzt7"><path d="M352.29,263.38h2.78a2.56,2.56,0,0,1,2.56,2.56v2.33a0,0,0,0,1,0,0h-7.9a0,0,0,0,1,0,0v-2.33a2.56,2.56,0,0,1,2.56-2.56Z" style="fill: rgb(38, 50, 56); transform-origin: 353.68px 265.825px; transform: rotate(21.67deg);" class="animable" id="elco5otvjtqf"></path></g><g id="elz3l18rg4gti"><path d="M357.36,266.16a.33.33,0,0,1-.18-.43.39.39,0,0,1,.15-.16,2.55,2.55,0,0,0-1.17-1.36.3.3,0,0,1-.53-.25l-.77-.3a.32.32,0,0,1-.37.13.32.32,0,0,1-.18-.35l-.76-.3a.32.32,0,0,1-.37.12A.3.3,0,0,1,353,263a2.56,2.56,0,0,0-1.79.19.33.33,0,0,1,0,.22.31.31,0,0,1-.42.18s0-.05-.08-.07a2.55,2.55,0,0,0-.73,1l-.86,2.17,7.34,2.92.86-2.17a2.62,2.62,0,0,0,.16-1.23Zm-7.43-.49a.33.33,0,0,1-.18-.43.32.32,0,0,1,.42-.18.32.32,0,0,1,.19.42A.33.33,0,0,1,349.93,265.67Zm1.08-.8a.33.33,0,0,1-.18-.43.33.33,0,1,1,.61.24A.34.34,0,0,1,351,264.87Zm.24,1.32a.33.33,0,1,1,.24-.61.34.34,0,0,1,.19.43A.33.33,0,0,1,351.25,266.19Zm.84-2.12a.33.33,0,0,1-.18-.43.34.34,0,0,1,.43-.19.33.33,0,0,1,.18.43A.34.34,0,0,1,352.09,264.07Zm.24,1.32a.33.33,0,0,1-.18-.43.31.31,0,0,1,.42-.18.34.34,0,0,1,.19.43A.33.33,0,0,1,352.33,265.39Zm.24,1.33a.33.33,0,0,1-.19-.43.34.34,0,0,1,.43-.19.33.33,0,0,1-.24.62Zm.84-2.13a.33.33,0,0,1-.18-.43.32.32,0,0,1,.42-.18.32.32,0,0,1,.19.42A.33.33,0,0,1,353.41,264.59Zm.24,1.32a.33.33,0,0,1-.19-.42.33.33,0,0,1,.43-.19.33.33,0,0,1,.18.43A.31.31,0,0,1,353.65,265.91Zm.23,1.33a.33.33,0,0,1,.25-.61.32.32,0,0,1,.18.43A.34.34,0,0,1,353.88,267.24Zm.85-2.13a.33.33,0,1,1,.24-.61.34.34,0,0,1,.19.43A.33.33,0,0,1,354.73,265.11Zm.23,1.33a.34.34,0,0,1-.18-.43.33.33,0,0,1,.43-.18.31.31,0,0,1,.18.42A.33.33,0,0,1,355,266.44Zm.24,1.32a.33.33,0,0,1,.24-.61.33.33,0,0,1,.19.43A.33.33,0,0,1,355.2,267.76Zm.85-2.12a.33.33,0,0,1-.19-.43.34.34,0,0,1,.43-.19.33.33,0,0,1-.24.62Zm.23,1.32a.33.33,0,0,1-.18-.43.32.32,0,0,1,.43-.18.34.34,0,0,1,.18.43A.33.33,0,0,1,356.28,267Zm.24,1.33a.33.33,0,1,1,.43-.19A.34.34,0,0,1,356.52,268.29Z" style="fill: rgb(255, 255, 255); isolation: isolate; opacity: 0.2; transform-origin: 353.308px 266.264px;" class="animable" id="eltd92u3spds"></path></g><path d="M354.81,270.47l-7.38,16.21-.67,1.48-.2.44a.53.53,0,0,1-.67.27l-2.37-.94a.5.5,0,0,1-.29-.65l.15-.46.53-1.54,5.76-16.86Z" style="fill: rgb(38, 50, 56); transform-origin: 349.003px 278.663px;" id="elc7m4l7pc76r" class="animable"></path><polygon points="354.03 272.78 348.66 270.65 348.98 267.12 356.21 270 354.03 272.78" style="fill: rgb(38, 50, 56); transform-origin: 352.435px 269.95px;" id="elx3jsrx78edb" class="animable"></polygon><g id="eljxseg7egid"><polygon points="354.03 272.78 348.66 270.65 348.98 267.12 356.21 270 354.03 272.78" style="fill: rgb(255, 255, 255); isolation: isolate; opacity: 0.2; transform-origin: 352.435px 269.95px;" class="animable" id="elj35rnh56y6s"></polygon></g><g id="eld7d8i6b12lg"><rect x="348.58" y="267.21" width="8.41" height="1.78" rx="0.45" style="fill: rgb(38, 50, 56); transform-origin: 352.785px 268.1px; transform: rotate(21.67deg);" class="animable" id="elw317vw39ap"></rect></g><g id="elj8o7d9eolmi"><rect x="348.58" y="267.21" width="8.41" height="1.78" rx="0.45" style="fill: rgb(255, 255, 255); isolation: isolate; opacity: 0.4; transform-origin: 352.785px 268.1px; transform: rotate(21.67deg);" class="animable" id="elkjpbfmexy2c"></rect></g><polygon points="347.43 286.68 346.76 288.16 343.38 286.82 343.91 285.28 347.43 286.68" style="fill: #FF5A60; transform-origin: 345.405px 286.72px;" id="eldj9el284a95" class="animable"></polygon><path d="M357.67,279l-5.62-5.67-3.5,9.48s5.85,3.76,8.17.85Z" style="fill: rgb(238, 193, 187); transform-origin: 353.11px 279.047px;" id="el7hrsb0zm5uc" class="animable"></path><polygon points="345.55 272.47 343.02 280.44 348.55 282.79 352.05 273.31 345.55 272.47" style="fill: rgb(238, 193, 187); transform-origin: 347.535px 277.63px;" id="elp742bz4iey8" class="animable"></polygon><g id="elb11xc9hstha"><path d="M381.45,292.82c-.17.55-.33,1.1-.49,1.65-1.31,4.6-2.32,9-3.11,13-.67,3.4-1.2,6.52-1.62,9.23-24.49-14-21.42-32-21.42-32a19.29,19.29,0,0,1,5.49-3.44c3.12-1.21,15.58,11,16.77,11s2.11-3.39,2.11-3.39S380.11,290.44,381.45,292.82Z" style="opacity: 0.1; transform-origin: 368.068px 298.938px;" class="animable" id="el58vvrj0rcce"></path></g><path d="M388.24,275.16c5.84,3.49,5.05,35.93-4.73,38.3-11.67,2.84-24.55-17.79-28-23.74a2.52,2.52,0,0,1,.29-2.92l3.48-4a2.52,2.52,0,0,1,3.73-.08c4.53,4.77,15.69,16.23,16.69,14.65.82-1.31-.74-7.86-.74-7.86s2.69-7.67,4.55-10.37A13,13,0,0,1,388.24,275.16Z" style="fill: #FF5A60; transform-origin: 373.545px 294.443px;" id="elbwsppv3ckis" class="animable"></path><g id="el8uopv0kg9io"><path d="M388.24,275.16c5.84,3.49,5.05,35.93-4.73,38.3-11.67,2.84-24.55-17.79-28-23.74a2.52,2.52,0,0,1,.29-2.92l3.48-4a2.52,2.52,0,0,1,3.73-.08c4.53,4.77,15.69,16.23,16.69,14.65.82-1.31-.74-7.86-.74-7.86s2.69-7.67,4.55-10.37A13,13,0,0,1,388.24,275.16Z" style="fill: rgb(255, 255, 255); opacity: 0.6; transform-origin: 373.545px 294.443px;" class="animable" id="elk5uwngwe5xf"></path></g><polygon points="360.93 281.98 358.08 278.87 353.73 284.66 356.18 287.85 360.93 281.98" style="fill: #FF5A60; transform-origin: 357.33px 283.36px;" id="eltlnb8bogn4o" class="animable"></polygon><g id="elq4ypi0tgjro"><polygon points="360.93 281.98 358.08 278.87 353.73 284.66 356.18 287.85 360.93 281.98" style="fill: rgb(255, 255, 255); opacity: 0.8; transform-origin: 357.33px 283.36px;" class="animable" id="elmc3c089g04"></polygon></g><polygon points="291.38 274.14 287.35 280.31 291.66 282.8 295.26 276.18 291.38 274.14" style="fill: #FF5A60; transform-origin: 291.305px 278.47px;" id="elweq256xfcnf" class="animable"></polygon><g id="elz918ig56fy"><polygon points="291.38 274.14 287.35 280.31 291.66 282.8 295.26 276.18 291.38 274.14" style="fill: rgb(255, 255, 255); opacity: 0.8; transform-origin: 291.305px 278.47px;" class="animable" id="el14n0tnxr61w"></polygon></g></g><g id="freepik--character-1--inject-2" class="animable animator-active" style="transform-origin: 173.216px 333.405px;"><path d="M83.45,299.79H176.3a7.84,7.84,0,0,1,7.57,6.75l10.81,88H88.34l-10.81-88A5.85,5.85,0,0,1,83.45,299.79Z" style="fill: rgb(38, 50, 56); transform-origin: 136.07px 347.164px;" id="el7owfzjtjq1t" class="animable"></path><g id="elfax0m7g1a7m" class=""><path d="M83.45,299.79H176.3a7.84,7.84,0,0,1,7.57,6.75l10.81,88H88.34l-10.81-88A5.85,5.85,0,0,1,83.45,299.79Z" style="fill: rgb(255, 255, 255); isolation: isolate; opacity: 0.6; transform-origin: 136.07px 347.164px;" class="animable" id="elfxfidpvxjip"></path></g><g id="el38hk4tk4zwu" class=""><path d="M108.91,394.58H88.34l-10.81-88a5.85,5.85,0,0,1,5.92-6.75h7.07a7.85,7.85,0,0,1,7.58,6.75Z" style="isolation: isolate; opacity: 0.2; transform-origin: 93.185px 347.204px;" class="animable" id="ely58obpum8pb"></path></g><polygon points="94.31 418.01 101.51 418.01 104.45 395.52 92.1 395.52 94.31 418.01" style="fill: rgb(38, 50, 56); transform-origin: 98.275px 406.765px;" id="elegtgx1xgikk" class="animable"></polygon><polygon points="125.94 418.01 133.14 418.01 136.09 395.52 123.73 395.52 125.94 418.01" style="fill: rgb(38, 50, 56); transform-origin: 129.91px 406.765px;" id="el97qv5sbtr0u" class="animable"></polygon><polygon points="179.64 418.01 186.84 418.01 189.78 395.52 177.43 395.52 179.64 418.01" style="fill: rgb(38, 50, 56); transform-origin: 183.605px 406.765px;" id="elj36plstqfud" class="animable"></polygon><polygon points="211.27 418.01 218.47 418.01 221.41 395.52 209.06 395.52 211.27 418.01" style="fill: rgb(38, 50, 56); transform-origin: 215.235px 406.765px;" id="el0dg3t5r491fm" class="animable"></polygon><g id="elfudxjjja9tt" class=""><polygon points="125.94 418.01 133.14 418.01 136.09 395.52 123.73 395.52 125.94 418.01" style="fill: rgb(255, 255, 255); isolation: isolate; opacity: 0.2; transform-origin: 129.91px 406.765px;" class="animable" id="elp7z1g5bbch"></polygon></g><g id="elgdls8ww4h94" class=""><polygon points="211.27 418.01 218.47 418.01 221.41 395.52 209.06 395.52 211.27 418.01" style="fill: rgb(255, 255, 255); isolation: isolate; opacity: 0.2; transform-origin: 215.235px 406.765px;" class="animable" id="el1x5aj7lgmkp"></polygon></g><path d="M89,394.09l.65,8.29a1.15,1.15,0,0,0,1.15,1.06H222.14a1.16,1.16,0,0,0,1.16-1.06l.65-8.29Z" style="fill: rgb(38, 50, 56); transform-origin: 156.475px 398.765px;" id="elpvdb5drre7o" class="animable"></path><g id="elvgh7zx9da7" class=""><path d="M120.29,394.09l.65,8.29a1.16,1.16,0,0,0,1.16,1.06h100a1.16,1.16,0,0,0,1.16-1.06l.65-8.29Z" style="fill: rgb(255, 255, 255); isolation: isolate; opacity: 0.2; transform-origin: 172.1px 398.765px;" class="animable" id="elsos7jefg3v"></path></g><path d="M137.61,375h40.57l2.95-33.75A13,13,0,0,1,194,329.41h43.21a5.44,5.44,0,0,1,5.42,5.92l-.68,7.76a5.43,5.43,0,0,1-4.73,4.93l-1.54.2a4.06,4.06,0,0,0-3.53,3.67l-3.72,42.58a6,6,0,0,1-6,5.49H137.61Z" style="fill: rgb(38, 50, 56); transform-origin: 190.131px 364.685px;" id="ell5lfuefjlb" class="animable"></path><g id="elc4couqjh5zg" class=""><path d="M137.61,375h40.57l2.95-33.75A13,13,0,0,1,194,329.41h43.21a5.44,5.44,0,0,1,5.42,5.92l-.68,7.76a5.43,5.43,0,0,1-4.73,4.93l-1.54.2a4.06,4.06,0,0,0-3.53,3.67l-3.72,42.58a6,6,0,0,1-6,5.49H137.61Z" style="fill: rgb(255, 255, 255); isolation: isolate; opacity: 0.6; transform-origin: 190.131px 364.685px;" class="animable" id="eltn18q9ungnd"></path></g><g id="els80wcxymtz" class=""><path d="M211.05,341.23A13,13,0,0,1,224,329.41H194a13,13,0,0,0-12.9,11.82L178.18,375H208.1Z" style="isolation: isolate; opacity: 0.2; transform-origin: 201.09px 352.205px;" class="animable" id="elnxk1pbppkrp"></path></g><g id="elxl5ljlyp7i8" class=""><path d="M137.61,375H208.1l3-33.75A13,13,0,0,1,224,329.41h13.29a5.44,5.44,0,0,1,5.42,5.92l-.68,7.76a5.43,5.43,0,0,1-4.73,4.93l-1.54.2a4.06,4.06,0,0,0-3.53,3.67l-3.72,42.58a6,6,0,0,1-6,5.49H137.61Z" style="fill: rgb(255, 255, 255); isolation: isolate; opacity: 0.1; transform-origin: 190.171px 364.685px;" class="animable" id="el8ys3vfxl1nw"></path></g><path d="M127.76,251.24s-5.9.81-7.53,4.5.68,16-1.46,18-5.57,7.23-2.54,10.52-1.19,5.94-.13,9.89,11.06,14,21.35,8.37,15.57-6.18,13-12.09-5.54-1.69-3.72-8.41,3.26-12,2.2-14.86-.5-10.33-6.12-11.25S127.76,251.24,127.76,251.24Z" style="fill: rgb(38, 50, 56); transform-origin: 133.064px 277.717px;" id="el9ksl9szogi9" class="animable"></path><path d="M153,288.64c1.53.6,3.26,1.29,4.92,1.84s3.34,1.11,5,1.57a32.78,32.78,0,0,0,4.69.95,11.6,11.6,0,0,0,1.82,0,1.85,1.85,0,0,0,.29,0h.18c.06,0,0,0,.05,0h0s.1-.06-.24.19a3.63,3.63,0,0,0-.65.65,3.88,3.88,0,0,0-.56,1,3.64,3.64,0,0,0,0,2.7c.31.69.36.59.35.6a.94.94,0,0,0-.17-.22c-.19-.21-.45-.48-.74-.75-.58-.55-1.25-1.11-1.94-1.67-1.38-1.13-2.84-2.26-4.31-3.37-2.95-2.24-6-4.51-8.91-6.81l0,0a2.35,2.35,0,0,1,2.34-4c3.55,1.49,7,3.11,10.38,4.93,1.69.92,3.38,1.86,5.06,2.92.85.54,1.69,1.09,2.56,1.73.44.33.89.67,1.38,1.11.24.23.5.47.8.81a5.84,5.84,0,0,1,1.11,1.78,5.05,5.05,0,0,1,.18.55c0,.1,0,.15.07.3s0,.28,0,.43a3,3,0,0,1,0,.43v.22l0,.29a5.25,5.25,0,0,1-.28,1.17,5,5,0,0,1-.65,1.14,4.72,4.72,0,0,1-.78.77,3.14,3.14,0,0,1-.39.29l-.15.09a7.92,7.92,0,0,1-1.2.65l-.6.26-.56.18a8.63,8.63,0,0,1-1.08.28,16.83,16.83,0,0,1-3.81.31,32.89,32.89,0,0,1-6.44-.84,56.26,56.26,0,0,1-5.84-1.63c-1.91-.67-3.7-1.31-5.63-2.19a4.7,4.7,0,0,1,3.64-8.67Z" style="fill: rgb(206, 122, 99); transform-origin: 161.532px 291.568px;" id="elxsmjrx9xus" class="animable"></path><path d="M155.12,301.21A39.31,39.31,0,0,0,158,292a10.25,10.25,0,0,0,0-2.81c0-.24.07.22,0,0-10-4.59-15.59-6-20.13-1.46C139.43,295.54,155.12,301.21,155.12,301.21Z" style="fill: #FF5A60; transform-origin: 147.983px 293.081px;" id="elyopuwysxkpl" class="animable"></path><g id="elnd86dd446cc" class=""><path d="M150.84,303.75c1.88-1.22,3.84.15,5-1.27a13.66,13.66,0,0,0-4.6-9.51A14.28,14.28,0,0,0,150.84,303.75Z" style="opacity: 0.2; transform-origin: 152.907px 298.36px;" class="animable" id="elzljaxtwrxo"></path></g><polygon points="262.31 413.95 266.91 408.06 252.96 397.53 248.37 403.42 262.31 413.95" style="fill: rgb(255, 195, 189); transform-origin: 257.64px 405.74px;" id="el3jsg1vjjryf" class="animable"></polygon><g id="el8q6qr9k9oga" class=""><polygon points="248.37 403.43 252.97 397.53 260.15 402.96 255.56 408.85 248.37 403.43" style="opacity: 0.2; transform-origin: 254.26px 403.19px;" class="animable" id="ell1567fvzl2"></polygon></g><path d="M264.24,405.78l-7,4.75a.59.59,0,0,0-.21.76l3,6a1.2,1.2,0,0,0,1.74.43c2.4-1.7,3.48-2.64,6.54-4.73,1.89-1.29,6.25-3.85,8.85-5.63s1-4.44-.25-3.94c-5.58,2.27-8.8,2.24-11.38,2A1.89,1.89,0,0,0,264.24,405.78Z" style="fill: rgb(38, 50, 56); transform-origin: 267.762px 410.644px;" id="el0zc9a8upf4vq" class="animable"></path><path d="M267.75,403.36a.59.59,0,0,0-.55-.21c-.93.16-2,2.65-2.09,2.93a.15.15,0,0,0,0,.16.14.14,0,0,0,.16,0c.93-.36,2.51-1.09,2.73-2a.93.93,0,0,0,0-.29A1.09,1.09,0,0,0,267.75,403.36Zm-.5.08a.29.29,0,0,1,.28.11.68.68,0,0,1,.21.66c-.12.52-.94,1.13-2.22,1.66C265.91,405,266.68,403.54,267.25,403.44Z" style="fill: #FF5A60; transform-origin: 266.549px 404.704px;" id="elvshep0w9rs" class="animable"></path><path d="M265.35,402.79a.59.59,0,0,0-.74-.07.91.91,0,0,0-.48.6c-.26,1.05.94,2.83,1,2.9a.15.15,0,0,0,.14.07.2.2,0,0,0,.12-.08,5.41,5.41,0,0,0,.33-2.38A1.71,1.71,0,0,0,265.35,402.79Zm-.93.61a.62.62,0,0,1,.32-.42c.22-.11.33-.05.4,0,.41.41.34,2,.07,2.82A4.19,4.19,0,0,1,264.42,403.4Z" style="fill: #FF5A60; transform-origin: 264.917px 404.456px;" id="el17uqvxz3kmz" class="animable"></path><path d="M153.21,296.37a93.24,93.24,0,0,1,2,12.49c.73,6.12.51,13.64,1.21,23.76L126.56,336c-.75-8.73-3.32-18.41-11.89-37a7.24,7.24,0,0,1,4.64-10.26c1.19-.31,2.46-.62,3.77-.89A97.86,97.86,0,0,1,137,285.69c1.53-.1,3.13-.16,4.66-.19C147.19,285.4,152.19,291,153.21,296.37Z" style="fill: #FF5A60; transform-origin: 135.159px 310.749px;" id="elwr12f85w5p" class="animable"></path><path d="M125.06,272.11c1.23,4.53,2.74,12.83-.2,15.86,0,0,4.29-.65,13.41,5,2.64-3.79.68-5,.68-5-5.15-1.2-5.3-4.95-4.69-8.48Z" style="fill: rgb(206, 122, 99); transform-origin: 132.255px 282.54px;" id="el9npbz6eognr" class="animable"></path><g id="eloi8le7xp1" class=""><path d="M128.81,275.12l5.45,4.36A14.22,14.22,0,0,0,134,282c-1.95-.28-4.76-2.4-5.12-4.42A6.66,6.66,0,0,1,128.81,275.12Z" style="opacity: 0.2; transform-origin: 131.494px 278.56px;" class="animable" id="el034aua90doon"></path></g><path d="M125.27,261c-.7,7.42-1.16,10.53,1.88,15.06,4.57,6.82,13.64,6.53,16.5-.41,2.58-6.25,3.3-17.32-3.27-21.74A9.55,9.55,0,0,0,125.27,261Z" style="fill: rgb(206, 122, 99); transform-origin: 135.134px 266.563px;" id="el2jicygmjf0s" class="animable"></path><path d="M139,267a18.61,18.61,0,0,0,1.57,4.41,2.51,2.51,0,0,1-2.18,0Z" style="fill: rgb(186, 77, 60); transform-origin: 139.48px 269.33px;" id="el6yfekfx19u4" class="animable"></path><path d="M133.34,260.65a.29.29,0,0,0,.27,0,2.68,2.68,0,0,1,2.53-.21.34.34,0,0,0,.47-.17.39.39,0,0,0-.18-.49,3.3,3.3,0,0,0-3.2.23.38.38,0,0,0-.11.51A.46.46,0,0,0,133.34,260.65Z" style="fill: rgb(38, 50, 56); transform-origin: 134.852px 260.077px;" id="elhcxy5yv5d4w" class="animable"></path><path d="M145.22,262.7a.3.3,0,0,0,.26,0,.36.36,0,0,0,.19-.47,3.85,3.85,0,0,0-2.44-2.36.33.33,0,0,0-.41.28.38.38,0,0,0,.29.44,3.11,3.11,0,0,1,1.91,1.89A.38.38,0,0,0,145.22,262.7Z" style="fill: rgb(38, 50, 56); transform-origin: 144.256px 261.295px;" id="elnbli91087to" class="animable"></path><path d="M135.25,264.87a.91.91,0,0,0-.57-.69,1.09,1.09,0,0,0-1.17.6,1.33,1.33,0,0,1,1.14-.08.52.52,0,0,1,.23.21.71.71,0,0,0,.09.15.6.6,0,0,0,.3.18c.53.16,1.07-.46,1.07-.46Z" style="fill: rgb(38, 50, 56); transform-origin: 134.925px 264.715px;" id="el8hjr089ucwv" class="animable"></path><path d="M142.71,266.73a.93.93,0,0,0-.58-.69,1.09,1.09,0,0,0-1.16.6,1.33,1.33,0,0,1,1.14-.08.52.52,0,0,1,.23.21.71.71,0,0,0,.09.15.6.6,0,0,0,.3.18c.53.16,1.07-.46,1.07-.46Z" style="fill: rgb(38, 50, 56); transform-origin: 142.385px 266.576px;" id="el3gh81yn824l" class="animable"></path><path d="M133,255.31a10.81,10.81,0,0,1-5.73,7.41l-.94,5.6-1.15,3.43s-5.8-1.24-4.8-11c.67-6.56,3.75-8.48,5.88-9a8.38,8.38,0,0,0,3.29-1.58c1.4-1.14,4.22-2.26,9.43-.3,7.68,2.9,5.47,9.36,5.47,9.36a10.33,10.33,0,0,0-3.67-3.54C138.66,254.58,135,254,133,255.31Z" style="fill: rgb(38, 50, 56); transform-origin: 132.504px 260.275px;" id="eld4epmm3s9u7" class="animable"></path><path d="M122,266.53a6,6,0,0,0,3,3.42c1.84.85,3-.9,2.72-3-.26-1.85-1.54-4.52-3.49-4.5S121.29,264.63,122,266.53Z" style="fill: rgb(206, 122, 99); transform-origin: 124.766px 266.31px;" id="elr5fo8ygxfnk" class="animable"></path><path d="M138.13,273.61a21.41,21.41,0,0,0-2.09,2.12c-.15-.09-.3-.18-.44-.28-2-1.25-2.54-2.5-2.51-3.5a3.08,3.08,0,0,1,.42-1.38,3.24,3.24,0,0,1,.5-.67,11.36,11.36,0,0,0,3.44,3.28C137.86,273.46,138.13,273.61,138.13,273.61Z" style="fill: rgb(38, 50, 56); transform-origin: 135.609px 272.815px;" id="eljwrebnsumvl" class="animable"></path><path d="M137.45,273.18l-.63.6c-1.89-1.18-3.07-2.27-3.31-3.21a3.24,3.24,0,0,1,.5-.67A11.36,11.36,0,0,0,137.45,273.18Z" style="fill: rgb(255, 255, 255); transform-origin: 135.48px 271.84px;" id="elzdl1dl942yp" class="animable"></path><path d="M135.6,275.45c-2-1.25-2.54-2.5-2.51-3.5a7.92,7.92,0,0,1,2,1.84A2.88,2.88,0,0,1,135.6,275.45Z" style="fill: rgb(222, 87, 83); transform-origin: 134.344px 273.7px;" id="elgqvw20tverc" class="animable"></path><path d="M142.38,254.16s-1.67,7.6-13.65,5.71c0,0,8.13.45,10.92-3.73,0,0-9.23,4.09-13.78,2.24s5.86-10,10.77-8.08S142.38,254.16,142.38,254.16Z" style="fill: rgb(38, 50, 56); transform-origin: 133.563px 255.091px;" id="elk1rjfc3yzno" class="animable"></path><path d="M130.26,371.38c11.86,7.95,38.54,3,62.74-2.14a60.86,60.86,0,0,0,10.93,11.34c11.59,9.57,26.78,17.21,36.76,21.65,6.22,2.79,10.41,4.33,10.41,4.33l6.46-8s-13.95-10.85-29.37-22.68c-10.48-8.06-21.64-16.58-29.53-22.45a4.79,4.79,0,0,0-1.44-.69h0a11.09,11.09,0,0,0-2.34-.33l-1.66-.1-1.35-.09c-8.35-.56-26.61-1.53-26.61-1.53l-8.51-19.73-31,1.95S120,364.55,130.26,371.38Z" style="fill: #FF5A60; transform-origin: 190.852px 368.76px;" id="elklp98zu9bve" class="animable"></path><g id="ellsy9ahxuw7" class=""><path d="M188.77,352.34a308.52,308.52,0,0,0,15.16,28.24c11.59,9.57,26.78,17.21,36.76,21.65a100.64,100.64,0,0,0-12.5-26.36q-2.26-3.42-5-6.86c-9-11.22-19.06-15.05-25.94-16.28h0c-.83-.14-1.6-.25-2.34-.33-1.14-.12-2.15-.18-3-.19A19,19,0,0,0,188.77,352.34Z" style="opacity: 0.2; transform-origin: 214.73px 377.212px;" class="animable" id="elaq35xbd25pm"></path></g><polygon points="233.28 409.77 240.14 406.81 232.97 390.88 226.11 393.83 233.28 409.77" style="fill: rgb(255, 195, 189); transform-origin: 233.125px 400.325px;" id="elwzsk0b3csc" class="animable"></polygon><g id="el7f9ix7iynri" class=""><polygon points="226.11 393.84 232.98 390.88 236.67 399.1 229.8 402.05 226.11 393.84" style="opacity: 0.2; transform-origin: 231.39px 396.465px;" class="animable" id="elofpcv4oggm8"></polygon></g><g id="ele9yvfgkl5av" class=""><path d="M130.26,371.38c11.86,7.95,38.54,3,62.74-2.14a60.86,60.86,0,0,0,10.93,11.34c11.59,9.57,26.78,17.21,36.76,21.65,6.22,2.79,10.41,4.33,10.41,4.33l6.46-8s-13.95-10.85-29.37-22.68c-10.48-8.06-21.64-16.58-29.53-22.45a4.79,4.79,0,0,0-1.44-.69h0a11.09,11.09,0,0,0-2.34-.33l-1.66-.1-1.35-.09c-8.35-.56-26.61-1.53-26.61-1.53l-8.51-19.73-31,1.95S120,364.55,130.26,371.38Z" style="fill: rgb(255, 255, 255); opacity: 0.5; transform-origin: 190.852px 368.76px;" class="animable" id="elorvgc9v4fug"></path></g><path d="M128.67,342.54s46.29-8,63.69-7.29c17,.71,44.21,59.2,44.21,59.2l-9.8,4.2c-20.68-20.21-32.64-35.06-38-46.31-39.84,18.2-54.83,18.05-54.83,18.05Z" style="fill: #FF5A60; transform-origin: 182.62px 366.928px;" id="eleq6xucp12vl" class="animable"></path><g id="el4aruga1gcpl" class=""><path d="M128.67,342.54s46.29-8,63.69-7.29c17,.71,44.21,59.2,44.21,59.2l-9.8,4.2c-20.68-20.21-32.64-35.06-38-46.31-39.84,18.2-54.83,18.05-54.83,18.05Z" style="fill: rgb(255, 255, 255); opacity: 0.5; transform-origin: 182.62px 366.928px;" class="animable" id="elhd5x3mk8uzt"></path></g><g id="eldfaxovrdw65" class=""><path d="M188.77,352.34s-1.56-3.72-4.23-4.15-24.8,1.41-24.8,1.41Z" style="opacity: 0.2; transform-origin: 174.255px 350.232px;" class="animable" id="elj91f36ffm4"></path></g><g id="elriv7ha823pl" class=""><path d="M126.28,305s3.34,7.31,0,9.81S120.21,305.79,126.28,305Z" style="opacity: 0.2; transform-origin: 125.222px 310.082px;" class="animable" id="elgy0se8rb6n"></path></g><path d="M123.34,302.4l.8,2.73c.28.94.58,1.88.9,2.81.63,1.86,1.31,3.7,2,5.52s1.53,3.56,2.37,5.28a52.22,52.22,0,0,0,2.81,4.86l-.61-.66a1.06,1.06,0,0,0-.66-.28s.15.06.43,0a9.35,9.35,0,0,0,2.26-.51,38.67,38.67,0,0,0,5.43-2.44c1.85-1,3.69-2,5.53-3.13s3.69-2.26,5.48-3.39l.05,0a2.34,2.34,0,0,1,2.95,3.59c-1.58,1.67-3.22,3.18-4.91,4.7s-3.48,2.91-5.36,4.27a39.75,39.75,0,0,1-6.2,3.72,17.17,17.17,0,0,1-4,1.34,9,9,0,0,1-2.85.09,7.07,7.07,0,0,1-3.64-1.55,4,4,0,0,1-.5-.51l-.12-.15a47.82,47.82,0,0,1-3.9-5.65,59.58,59.58,0,0,1-3.06-5.94c-.92-2-1.72-4.06-2.44-6.13-.35-1-.69-2.08-1-3.13s-.59-2.08-.87-3.28a4.7,4.7,0,0,1,9.08-2.39Z" style="fill: rgb(206, 122, 99); transform-origin: 133.928px 314.927px;" id="elon0deptzfmq" class="animable"></path><path d="M116.94,289.88c-5.23,3.7-5.48,9.23-2.66,19.82,3.78,1.89,13-.51,13-.51S124.35,292.76,116.94,289.88Z" style="fill: #FF5A60; transform-origin: 119.886px 300.153px;" id="el9gtcezuz5rr" class="animable"></path><path d="M148,271.66l5.06,3,2.84,7.33L153,285.5s-3.73-3.43-4.23-5.64l-2.07-1.94Z" style="fill: rgb(206, 122, 99); transform-origin: 151.3px 278.58px;" id="elanriouoizpm" class="animable"></path><polygon points="260.46 399.14 252.29 409.23 247.83 406.54 256.73 395.83 260.46 399.14" style="fill: #FF5A60; transform-origin: 254.145px 402.53px;" id="elqml74zjn5hg" class="animable"></polygon><polygon points="238.77 395.9 226.76 400.81 224.14 396.31 237.09 391.2 238.77 395.9" style="fill: #FF5A60; transform-origin: 231.455px 396.005px;" id="elt91gaep5u" class="animable"></polygon><path d="M238.89,403.53l-8.4.81a.59.59,0,0,0-.54.57l-.32,6.74a1.21,1.21,0,0,0,1.33,1.21c2.92-.33,4.32-.64,8-1,2.27-.22,7.33-.37,10.47-.68s3-3.42,1.67-3.58c-6-.69-8.79-2.27-10.93-3.73A1.93,1.93,0,0,0,238.89,403.53Z" style="fill: rgb(38, 50, 56); transform-origin: 240.811px 408.194px;" id="eleuurm6hizo" class="animable"></path><path d="M243.13,403.1a.58.58,0,0,0-.38-.45c-.89-.3-3,1.38-3.24,1.57a.13.13,0,0,0,0,.15.14.14,0,0,0,.12.11c1,.13,2.73.26,3.36-.44a1,1,0,0,0,.16-.25A1,1,0,0,0,243.13,403.1Zm-.47-.17a.31.31,0,0,1,.19.24.72.72,0,0,1-.13.67c-.36.4-1.37.54-2.75.39C240.72,403.67,242.11,402.75,242.66,402.93Z" style="fill: #FF5A60; transform-origin: 241.344px 403.599px;" id="ellat33nlacoh" class="animable"></path><path d="M241.3,401.44a.6.6,0,0,0-.62-.41.87.87,0,0,0-.7.3c-.73.79-.54,2.93-.53,3a.16.16,0,0,0,.09.12.12.12,0,0,0,.14,0,5.23,5.23,0,0,0,1.44-1.92A1.68,1.68,0,0,0,241.3,401.44Zm-1.1.09a.59.59,0,0,1,.48-.2c.24,0,.31.11.34.2.16.55-.65,1.9-1.29,2.5A4.1,4.1,0,0,1,240.2,401.53Z" style="fill: #FF5A60; transform-origin: 240.373px 402.75px;" id="el1ehp74uwzop" class="animable"></path><g id="el7buhellv33a" class=""><path d="M152.37,295h2.78a2.56,2.56,0,0,1,2.56,2.56v2.33a0,0,0,0,1,0,0h-7.9a0,0,0,0,1,0,0v-2.33a2.56,2.56,0,0,1,2.56-2.56Z" style="fill: rgb(38, 50, 56); transform-origin: 153.76px 297.445px; transform: rotate(-3.76deg);" class="animable" id="elwe6u2jj2b58"></path></g><g id="elun099wfrov" class=""><path d="M157.23,296.12a.32.32,0,0,1-.35-.31.25.25,0,0,1,.07-.2,2.51,2.51,0,0,0-1.65-.73.32.32,0,0,1-.27.24.33.33,0,0,1-.32-.24l-.81.06a.31.31,0,0,1-.6,0l-.82,0a.32.32,0,0,1-.28.27.31.31,0,0,1-.3-.2,2.56,2.56,0,0,0-1.54.94.3.3,0,0,1,.1.2.33.33,0,0,1-.31.35s-.06,0-.09,0a2.52,2.52,0,0,0-.24,1.22l.16,2.33,7.88-.52-.15-2.33a2.54,2.54,0,0,0-.39-1.18S157.26,296.12,157.23,296.12Zm-6.93,2.75a.34.34,0,0,1-.35-.31.33.33,0,0,1,.66,0A.33.33,0,0,1,150.3,298.87Zm.64-1.19a.32.32,0,0,1-.35-.31.32.32,0,0,1,.3-.35.33.33,0,0,1,.35.31A.32.32,0,0,1,150.94,297.68Zm.78,1.1a.33.33,0,0,1-.35-.31.33.33,0,0,1,.3-.35.33.33,0,1,1,.05.66Zm-.15-2.29a.33.33,0,0,1-.35-.3.34.34,0,0,1,.3-.36.34.34,0,0,1,.36.31A.33.33,0,0,1,151.57,296.49Zm.78,1.1a.33.33,0,1,1,.31-.35A.33.33,0,0,1,152.35,297.59Zm.78,1.09a.32.32,0,0,1-.35-.3.33.33,0,0,1,.31-.35.32.32,0,0,1,.35.3A.33.33,0,0,1,153.13,298.68ZM153,296.4a.33.33,0,1,1,.31-.35A.33.33,0,0,1,153,296.4Zm.78,1.1a.34.34,0,0,1-.35-.31.33.33,0,0,1,.31-.35.33.33,0,0,1,.35.3A.34.34,0,0,1,153.76,297.5Zm.79,1.09a.33.33,0,1,1,.3-.35A.32.32,0,0,1,154.55,298.59Zm-.15-2.28a.33.33,0,0,1-.35-.31.33.33,0,1,1,.65,0A.32.32,0,0,1,154.4,296.31Zm.78,1.09a.33.33,0,0,1-.35-.31.33.33,0,1,1,.35.31Zm.78,1.1a.33.33,0,1,1,.31-.35A.33.33,0,0,1,156,298.5Zm-.15-2.29a.32.32,0,0,1-.35-.3.33.33,0,0,1,.31-.35.32.32,0,0,1,.35.3A.33.33,0,0,1,155.81,296.21Zm.78,1.1a.34.34,0,0,1-.35-.31.33.33,0,1,1,.66,0A.33.33,0,0,1,156.59,297.31Zm.79,1.1a.33.33,0,0,1-.35-.31.32.32,0,0,1,.3-.35.33.33,0,0,1,0,.66Z" style="fill: rgb(255, 255, 255); isolation: isolate; opacity: 0.2; transform-origin: 153.838px 297.465px;" class="animable" id="eldphfjf1x4p"></path></g><path d="M156.77,301.1l.3,17.81,0,1.64V321a.53.53,0,0,1-.49.53l-2.54.17a.53.53,0,0,1-.55-.47l-.05-.48-.19-1.62-2-17.69Z" style="fill: rgb(38, 50, 56); transform-origin: 154.16px 311.4px;" id="elb404to2vyz" class="animable"></path><polygon points="157.06 303.53 151.29 303.91 150.07 300.59 157.83 300.08 157.06 303.53" style="fill: rgb(38, 50, 56); transform-origin: 153.95px 301.995px;" id="el94y4edypcv" class="animable"></polygon><g id="elpob2fixxgmq" class=""><polygon points="157.06 303.53 151.29 303.91 150.07 300.59 157.83 300.08 157.06 303.53" style="fill: rgb(255, 255, 255); isolation: isolate; opacity: 0.2; transform-origin: 153.95px 301.995px;" class="animable" id="elix9jmj7m6e"></polygon></g><g id="el2d4ltb7daam" class=""><rect x="149.72" y="298.95" width="8.41" height="1.78" rx="0.45" style="fill: rgb(38, 50, 56); transform-origin: 153.925px 299.84px; transform: rotate(-3.76deg);" class="animable" id="el9tpaxzsir3s"></rect></g><g id="elox9jdjaaw1j" class=""><rect x="149.72" y="298.95" width="8.41" height="1.78" rx="0.45" style="fill: rgb(255, 255, 255); isolation: isolate; opacity: 0.4; transform-origin: 153.925px 299.84px; transform: rotate(-3.76deg);" class="animable" id="el4awn06555mr"></rect></g><polygon points="157.07 318.91 157.1 320.55 153.48 320.78 153.29 319.16 157.07 318.91" style="fill: rgb(255, 255, 255); transform-origin: 155.195px 319.845px;" id="el88d6xfk5b6f" class="animable"></polygon><path d="M157.3,310.08l-2.26-.5a2.71,2.71,0,0,0-2.39.63l-3,2.72a5,5,0,0,0-1.63,4.31l.12,1c3.69,1.09,8.48-.45,8.48-.45l1.41-.29a2.25,2.25,0,0,0,1.82-2.62l-.53-2.81A2.6,2.6,0,0,0,157.3,310.08Z" style="fill: rgb(206, 122, 99); transform-origin: 153.936px 314.074px;" id="elkpos7ooe5k" class="animable"></path><path d="M73.34,329.41H121a12.94,12.94,0,0,1,12.9,11.82l3,33.75h3.39v25H88.1a6,6,0,0,1-6-5.49l-3.73-42.58a4,4,0,0,0-3.53-3.67l-1.53-.2a5.43,5.43,0,0,1-4.73-4.93l-.68-7.76A5.44,5.44,0,0,1,73.34,329.41Z" style="fill: rgb(38, 50, 56); transform-origin: 104.083px 364.695px;" id="el8x4tj0m49im" class="animable"></path><g id="el2nh5pka6nfa" class=""><path d="M73.34,329.41H121a12.94,12.94,0,0,1,12.9,11.82l3,33.75h3.39v25H88.1a6,6,0,0,1-6-5.49l-3.73-42.58a4,4,0,0,0-3.53-3.67l-1.53-.2a5.43,5.43,0,0,1-4.73-4.93l-.68-7.76A5.44,5.44,0,0,1,73.34,329.41Z" style="fill: rgb(255, 255, 255); isolation: isolate; opacity: 0.6; transform-origin: 104.083px 364.695px;" class="animable" id="el9olez4kc57h"></path></g><g id="el9vgbgkdf9ve" class=""><g style="isolation: isolate; opacity: 0.2; transform-origin: 95.1944px 364.675px;" class="animable" id="elxeuks6eek8"><path d="M116.48,394.47l-3.72-42.58a4.06,4.06,0,0,0-3.53-3.67l-1.54-.2a5.43,5.43,0,0,1-4.73-4.93l-.68-7.76a5.44,5.44,0,0,1,5.42-5.92H73.34a5.44,5.44,0,0,0-5.42,5.92l.68,7.76A5.43,5.43,0,0,0,73.33,348l1.53.2a4,4,0,0,1,3.53,3.67l3.73,42.58a6,6,0,0,0,6,5.49h34.37A6,6,0,0,1,116.48,394.47Z" id="el1b3iptndkhn" class="animable" style="transform-origin: 95.1944px 364.675px;"></path></g></g><g id="elemomas9oh5i" class=""><path d="M107.7,329.41H121a12.94,12.94,0,0,1,12.9,11.82l3,33.75h3.39v25H122.47a6,6,0,0,1-6-5.49l-3.72-42.58a4.06,4.06,0,0,0-3.53-3.67l-1.54-.2a5.43,5.43,0,0,1-4.73-4.93l-.68-7.76A5.44,5.44,0,0,1,107.7,329.41Z" style="fill: rgb(255, 255, 255); isolation: isolate; opacity: 0.1; transform-origin: 121.268px 364.695px;" class="animable" id="eldd7gdwwcx7"></path></g></g><defs>     <filter id="active" height="200%">         <feMorphology in="SourceAlpha" result="DILATED" operator="dilate" radius="2"></feMorphology>                <feFlood flood-color="#32DFEC" flood-opacity="1" result="PINK"></feFlood>        <feComposite in="PINK" in2="DILATED" operator="in" result="OUTLINE"></feComposite>        <feMerge>            <feMergeNode in="OUTLINE"></feMergeNode>            <feMergeNode in="SourceGraphic"></feMergeNode>        </feMerge>    </filter>    <filter id="hover" height="200%">        <feMorphology in="SourceAlpha" result="DILATED" operator="dilate" radius="2"></feMorphology>                <feFlood flood-color="#ff0000" flood-opacity="0.5" result="PINK"></feFlood>        <feComposite in="PINK" in2="DILATED" operator="in" result="OUTLINE"></feComposite>        <feMerge>            <feMergeNode in="OUTLINE"></feMergeNode>            <feMergeNode in="SourceGraphic"></feMergeNode>        </feMerge>            <feColorMatrix type="matrix" values="0   0   0   0   0                0   1   0   0   0                0   0   0   0   0                0   0   0   1   0 "></feColorMatrix>    </filter></defs></svg>